<svg width="145" height="35" viewBox="0 0 145 35" fill="none" xmlns="http://www.w3.org/2000/svg">
<g clip-path="url(#clip0_482_1422)">
<path d="M6.6072 11.7908C5.52476 11.7908 4.64739 11.0089 4.64739 10.0431C4.64739 9.07868 5.52476 8.29767 6.6072 8.29767C7.68877 8.29767 8.56528 9.07868 8.56528 10.0431C8.56528 11.0089 7.68877 11.7908 6.6072 11.7908ZM6.60374 7.07563C4.58855 7.07563 2.95581 8.40652 2.95581 10.0466C2.95581 11.685 4.58855 13.0163 6.60374 13.0163C8.62152 13.0163 10.256 11.685 10.256 10.0466C10.256 8.40652 8.62152 7.07563 6.60374 7.07563Z" fill="white"/>
<path d="M1.68706 3.60939C1.68706 2.52655 2.43811 1.6471 3.37129 1.6471C4.30101 1.6471 5.05335 2.52655 5.05335 3.60939C5.05335 4.6944 4.30101 5.57212 3.37129 5.57212C2.43811 5.57212 1.68706 4.6944 1.68706 3.60939ZM8.53731 2.69394V4.4676H6.61514C6.69561 4.19439 6.74233 3.90688 6.74233 3.60939C6.74233 3.29109 6.69215 2.98449 6.59956 2.69394H8.53731ZM5.92077 5.69007H8.53731V7.1077H10.2254V0.721243C10.2254 0.442402 9.99354 0.217768 9.70671 0.217768H8.53731V1.47147H5.86539C5.24846 0.829658 4.36158 0.424189 3.37302 0.424189C1.50796 0.424189 0.000244141 1.85048 0.000244141 3.60939C0.000244141 5.36874 1.50796 6.7946 3.37302 6.7946C4.39143 6.7946 5.30254 6.36571 5.92077 5.69007Z" fill="white"/>
<path d="M35.4715 0.22032H34.3025V8.48494C32.7827 8.89084 30.8497 8.96499 30.5374 8.94982L25.3411 8.95415V10.171H29.6055C31.9348 10.171 33.3378 9.88434 34.3025 9.5552V12.5483H35.9907V0.722927C35.9907 0.445821 35.7566 0.22032 35.4715 0.22032Z" fill="white"/>
<path d="M44.2131 4.72509H46.3745V9.8895H48.0627V0.725916C48.0627 0.44534 47.8303 0.220706 47.5435 0.220706H46.3745V3.50348H44.2131V4.72509Z" fill="white"/>
<path d="M41.4264 5.21898C42.3709 6.73591 44.38 7.91111 44.38 7.91111L45.3694 6.89419C42.4107 5.03814 42.2528 3.49259 42.2722 1.95918V1.9362H44.852V0.713724H38.0013V1.9362H40.5819V1.95918C40.6023 3.49259 40.4413 5.03814 37.4839 6.89419L38.4733 7.91111C38.4733 7.91111 40.4833 6.73591 41.4264 5.21898Z" fill="white"/>
<path d="M41.882 10.8501L41.8811 10.8506V8.67058H40.1938V11.1116C40.1938 11.9087 40.8605 12.554 41.6782 12.554H48.1733V11.3311H42.3553C42.0922 11.3172 41.882 11.1077 41.882 10.8501Z" fill="white"/>
<path d="M55.6255 11.7935C54.5444 11.7935 53.6674 11.0117 53.6674 10.0463C53.6674 9.08015 54.5444 8.29957 55.6255 8.29957C56.7084 8.29957 57.5849 9.08015 57.5849 10.0463C57.5849 11.0117 56.7084 11.7935 55.6255 11.7935ZM55.6229 7.0784C53.6073 7.0784 51.9741 8.40842 51.9741 10.0481C51.9741 11.6877 53.6073 13.0173 55.6229 13.0173C57.6411 13.0173 59.273 11.6877 59.273 10.0481C59.273 8.40842 57.6411 7.0784 55.6229 7.0784Z" fill="white"/>
<path d="M59.3048 2.99748V0.72556C59.3048 0.445852 59.0708 0.22035 58.7835 0.22035H57.6158V4.82751C55.8269 5.23341 53.5881 5.35874 53.2255 5.36828C52.3062 5.3917 51.8822 5.32622 51.8697 4.45327L51.8714 1.945H56.0372V0.723825H50.1824V4.48579C50.1776 5.99708 50.7868 6.60984 52.3572 6.68096C53.4427 6.72953 56.0908 6.30932 57.6158 5.94331V7.11158H59.3048V4.21866H61.0972V2.99748H59.3048Z" fill="white"/>
<path d="M14.7645 4.51281C14.7645 3.39788 15.4718 2.49587 16.3501 2.49587C17.2244 2.49587 17.9326 3.39788 17.9326 4.51281C17.9326 5.62817 17.2244 6.52887 16.3501 6.52887C15.4718 6.52887 14.7645 5.62817 14.7645 4.51281ZM22.6539 0.723086C22.6539 0.445113 22.4211 0.220479 22.1347 0.220479H20.9662V8.4864C19.4485 8.891 17.5169 8.96472 17.2058 8.94998H17.195V7.63947C18.5911 7.27086 19.6229 6.01282 19.6229 4.51281C19.6228 3.77833 19.3707 3.06623 18.9091 2.49587H20.1503V1.27426H17.195V0.0522203H15.5056V1.27426H12.5494V2.49587H13.7911C13.3283 3.06575 13.0756 3.77803 13.0755 4.51281C13.0755 6.01282 14.1064 7.26999 15.5056 7.63947V8.95388H12.0073V10.1738L16.2735 10.1733C18.6002 10.1733 20.0027 9.88581 20.9662 9.55709V12.5459H22.6539V5.50068H24.5765V4.2795H22.6539V0.723086Z" fill="white"/>
<path d="M29.265 1.66158C30.3128 1.66158 31.1651 2.71623 31.1651 4.0146C31.1651 5.3147 30.3128 6.36762 29.265 6.36762C28.215 6.36762 27.3644 5.3147 27.3644 4.0146C27.3644 2.71623 28.215 1.66158 29.265 1.66158ZM29.2671 7.59139C31.2486 7.59139 32.858 5.98903 32.858 4.01416C32.858 2.03973 31.2486 0.436067 29.2671 0.436067C27.2822 0.436067 25.6729 2.03973 25.6729 4.01416C25.6729 5.98903 27.2822 7.59139 29.2671 7.59139Z" fill="white"/>
<path d="M67.0867 20.99C72.6096 22.4102 78.4587 24.8413 85.5616 26.5742C89.4947 25.4463 93.5276 23.9272 97.6809 21.9848C103.207 19.4007 108.428 18.1496 113.199 17.7554H42.8733C44.2205 17.8226 45.5681 17.8928 46.9136 17.9939C54.0247 18.5277 60.1836 19.2138 67.0867 20.99Z" fill="#80BF26"/>
<path d="M48.2299 25.5597C59.9913 29.699 72.1936 30.4063 85.5619 26.5741C78.459 24.8412 72.6094 22.4105 67.0864 20.9899C60.1839 19.2136 54.0245 18.528 46.9138 17.9937C45.5684 17.8927 44.2207 17.8224 42.8735 17.7552H0.510498V23.2644C2.97821 22.2783 5.52424 21.4162 8.10141 20.767C21.7314 17.3333 35.2549 20.9933 48.2299 25.5597Z" fill="#E4007F"/>
<path d="M120.1 17.7554C131.567 18.7055 139.266 24.089 140.389 24.7498L144.909 17.7554H120.1Z" fill="#E4007F"/>
<path d="M113.198 17.7554C108.427 18.1496 103.206 19.4007 97.6803 21.9849C93.527 23.9272 89.4941 25.4463 85.561 26.5742C88.9303 27.396 92.5804 28.0617 96.6147 28.3865C104.967 29.0587 109.988 27.2737 117.207 25.3075C132.045 21.2659 140.389 24.7499 140.389 24.7499C139.265 24.089 131.567 18.7056 120.099 17.7554H113.198Z" fill="#00A1E9"/>
<path d="M117.207 25.3074C109.988 27.2736 104.967 29.0586 96.6146 28.3864C92.5804 28.0616 88.9307 27.3959 85.5614 26.5742C72.1932 30.4064 59.9909 29.6986 48.2294 25.5598C35.2544 20.9934 21.7309 17.3329 8.10092 20.7671C5.52375 21.4163 2.97772 22.2784 0.51001 23.2641V23.2675C0.51001 23.2675 35.4933 24.1348 59.566 30.0521C83.6392 35.9689 92.7646 36.0508 106.626 32.5777C120.499 29.1045 129.613 24.7606 140.388 24.7498C140.388 24.7498 132.045 21.2658 117.207 25.3074Z" fill="#1D2088"/>
</g>
<defs>
<clipPath id="clip0_482_1422">
<rect width="145" height="35" fill="white"/>
</clipPath>
</defs>
</svg>
