<svg width="104" height="25" viewBox="0 0 104 25" fill="none" xmlns="http://www.w3.org/2000/svg">
<g clip-path="url(#clip0_908_1523)">
<path d="M4.73904 8.422C3.96267 8.422 3.33339 7.86351 3.33339 7.17369C3.33339 6.48479 3.96267 5.92693 4.73904 5.92693C5.51479 5.92693 6.14346 6.48479 6.14346 7.17369C6.14346 7.86351 5.51479 8.422 4.73904 8.422ZM4.73656 5.05404C3.29119 5.05404 2.12012 6.00467 2.12012 7.17617C2.12012 8.34642 3.29119 9.29736 4.73656 9.29736C6.1838 9.29736 7.35611 8.34642 7.35611 7.17617C7.35611 6.00467 6.1838 5.05404 4.73656 5.05404Z" fill="#727272"/>
<path d="M1.2101 2.57812C1.2101 1.80466 1.74878 1.17648 2.4181 1.17648C3.08493 1.17648 3.62454 1.80466 3.62454 2.57812C3.62454 3.35312 3.08493 3.98006 2.4181 3.98006C1.74878 3.98006 1.2101 3.35312 1.2101 2.57812ZM6.12338 1.92422V3.19112H4.74472C4.80244 2.99597 4.83595 2.79061 4.83595 2.57812C4.83595 2.35076 4.79995 2.13176 4.73355 1.92422H6.12338ZM4.24669 4.06432H6.12338V5.0769H7.33417V0.515152C7.33417 0.315979 7.16785 0.155527 6.96212 0.155527H6.12338V1.05103H4.20697C3.76448 0.59259 3.12837 0.30297 2.41934 0.30297C1.08164 0.30297 0.000244141 1.32175 0.000244141 2.57812C0.000244141 3.83479 1.08164 4.85326 2.41934 4.85326C3.14978 4.85326 3.80327 4.54691 4.24669 4.06432Z" fill="#727272"/>
<path d="M25.4418 0.157438H24.6033V6.06074C23.5132 6.35067 22.1268 6.40363 21.9028 6.39279L18.1758 6.39589V7.26506H21.2344C22.9051 7.26506 23.9114 7.06031 24.6033 6.82521V8.96313H25.8141V0.516444C25.8141 0.318511 25.6462 0.157438 25.4418 0.157438Z" fill="#727272"/>
<path d="M31.7114 3.3751H33.2617V7.06396H34.4725V0.518546C34.4725 0.318135 34.3058 0.157681 34.1001 0.157681H33.2617V2.50252H31.7114V3.3751Z" fill="#727272"/>
<path d="M29.7128 3.72792C30.3902 4.81144 31.8312 5.65088 31.8312 5.65088L32.5408 4.9245C30.4187 3.59876 30.3054 2.49479 30.3194 1.3995V1.38308H32.1697V0.509886H27.2561V1.38308H29.1071V1.3995C29.1216 2.49479 29.0062 3.59876 26.885 4.9245L27.5947 5.65088C27.5947 5.65088 29.0363 4.81144 29.7128 3.72792Z" fill="#727272"/>
<path d="M30.0394 7.75002L30.0388 7.75033V6.19319H28.8286V7.9368C28.8286 8.50613 29.3068 8.96704 29.8933 8.96704H34.5518V8.09353H30.3789C30.1902 8.08362 30.0394 7.93401 30.0394 7.75002Z" fill="#727272"/>
<path d="M39.8968 8.42397C39.1213 8.42397 38.4923 7.86548 38.4923 7.17597C38.4923 6.48584 39.1213 5.92828 39.8968 5.92828C40.6734 5.92828 41.3021 6.48584 41.3021 7.17597C41.3021 7.86548 40.6734 8.42397 39.8968 8.42397ZM39.8949 5.05601C38.4492 5.05601 37.2778 6.00603 37.2778 7.17721C37.2778 8.34839 38.4492 9.2981 39.8949 9.2981C41.3424 9.2981 42.5129 8.34839 42.5129 7.17721C42.5129 6.00603 41.3424 5.05601 39.8949 5.05601Z" fill="#727272"/>
<path d="M42.5359 2.14095V0.518147C42.5359 0.318356 42.368 0.157283 42.162 0.157283H41.3245V3.44811C40.0414 3.73804 38.4356 3.82756 38.1756 3.83438C37.5162 3.8511 37.2121 3.80433 37.2031 3.1808L37.2043 1.38918H40.1922V0.516908H35.9929V3.20403C35.9895 4.28352 36.4264 4.7212 37.5528 4.772C38.3314 4.8067 40.2307 4.50654 41.3245 4.24511V5.07959H42.5359V3.01322H43.8215V2.14095H42.5359Z" fill="#727272"/>
<path d="M10.5896 3.22354C10.5896 2.42716 11.0969 1.78287 11.7268 1.78287C12.354 1.78287 12.8619 2.42716 12.8619 3.22354C12.8619 4.02022 12.354 4.66358 11.7268 4.66358C11.0969 4.66358 10.5896 4.02022 10.5896 3.22354ZM16.2482 0.516592C16.2482 0.31804 16.0813 0.157587 15.8759 0.157587H15.0377V6.06182C13.9492 6.35082 12.5637 6.40347 12.3406 6.39294H12.3329V5.45686C13.3342 5.19357 14.0743 4.29498 14.0743 3.22354C14.0742 2.69891 13.8934 2.19026 13.5623 1.78287H14.4525V0.91029H12.3329V0.0374022H11.1211V0.91029H9.00087V1.78287H9.89142C9.55954 2.18992 9.37828 2.6987 9.37819 3.22354C9.37819 4.29498 10.1176 5.19295 11.1211 5.45686V6.39573H8.61206V7.26707L11.6719 7.26676C13.3407 7.26676 14.3467 7.06139 15.0377 6.8266V8.96143H16.2482V3.92916H17.6272V3.05689H16.2482V0.516592Z" fill="#727272"/>
<path d="M20.99 1.18678C21.7415 1.18678 22.3528 1.94011 22.3528 2.86751C22.3528 3.79615 21.7415 4.54824 20.99 4.54824C20.2369 4.54824 19.6268 3.79615 19.6268 2.86751C19.6268 1.94011 20.2369 1.18678 20.99 1.18678ZM20.9915 5.42236C22.4127 5.42236 23.567 4.27782 23.567 2.8672C23.567 1.45689 22.4127 0.311417 20.9915 0.311417C19.5679 0.311417 18.4136 1.45689 18.4136 2.8672C18.4136 4.27782 19.5679 5.42236 20.9915 5.42236Z" fill="#727272"/>
<path d="M48.1173 14.993C52.0786 16.0074 56.2738 17.7439 61.3683 18.9817C64.1893 18.176 67.0819 17.0909 70.0608 15.7036C74.0242 13.8577 77.7689 12.9641 81.1909 12.6825H30.7505C31.7168 12.7305 32.6833 12.7807 33.6484 12.8529C38.7488 13.2342 43.1662 13.7242 48.1173 14.993Z" fill="#C6C6C6"/>
<path d="M34.5925 18.257C43.0283 21.2137 51.7803 21.7189 61.3686 18.9816C56.2741 17.7438 52.0785 16.0076 48.1172 14.9929C43.1664 13.7241 38.7487 13.2344 33.6486 12.8528C32.6836 12.7806 31.717 12.7304 30.7507 12.6824H0.366211V16.6175C2.13616 15.9131 3.96227 15.2973 5.81072 14.8336C15.5867 12.381 25.2863 14.9953 34.5925 18.257Z" fill="#999999"/>
<path d="M86.1404 12.6824C94.3655 13.3611 99.8873 17.2064 100.692 17.6785L103.934 12.6824H86.1404Z" fill="#999999"/>
<path d="M81.1906 12.6824C77.7686 12.964 74.0239 13.8576 70.0605 15.7034C67.0816 17.0908 64.189 18.1759 61.368 18.9816C63.7847 19.5686 66.4026 20.044 69.2962 20.276C75.2868 20.7561 78.8882 19.4812 84.0658 18.0768C94.7082 15.1899 100.693 17.6784 100.693 17.6784C99.887 17.2064 94.3653 13.3611 86.1402 12.6824H81.1906Z" fill="#B1B1B1"/>
<path d="M84.0656 18.0766C78.8879 19.4811 75.2866 20.756 69.2959 20.2759C66.4024 20.0439 63.7847 19.5684 61.3681 18.9814C51.7798 21.7187 43.0278 21.2132 34.592 18.2569C25.2859 14.9952 15.5862 12.3806 5.81024 14.8335C3.96179 15.2972 2.13567 15.913 0.365723 16.6171V16.6196C0.365723 16.6196 25.4572 17.2391 42.7231 21.4657C59.9894 25.692 66.5346 25.7505 76.4762 23.2697C86.4266 20.7889 92.9634 17.686 100.692 17.6783C100.692 17.6783 94.7082 15.1897 84.0656 18.0766Z" fill="#777777"/>
</g>
<defs>
<clipPath id="clip0_908_1523">
<rect width="104" height="25" fill="white"/>
</clipPath>
</defs>
</svg>
