<svg width="31" height="30" viewBox="0 0 31 30" fill="none" xmlns="http://www.w3.org/2000/svg">
<path d="M8.33308 26L14.284 21.1543H24.3985C25.9733 21.1543 27.25 19.8555 27.25 18.2532V6.9011C27.25 5.29887 25.9733 4 24.3985 4H6.10149C4.52665 4 3.25 5.29887 3.25 6.9011V18.2532C3.25 19.8555 4.52665 21.1543 6.10149 21.1543H8.33308V26Z" fill="#E4007F" fill-opacity="0.15"/>
<path d="M8.1906 9.8022H22.3094M8.1906 14.6044H22.3094M14.284 21.1543L8.33308 26V21.1543H6.10149C4.52665 21.1543 3.25 19.8555 3.25 18.2532V6.9011C3.25 5.29887 4.52665 4 6.10149 4H24.3985C25.9733 4 27.25 5.29887 27.25 6.9011V18.2532C27.25 19.8555 25.9733 21.1543 24.3985 21.1543H14.284Z" stroke="#E4007F" stroke-width="2" stroke-linecap="round" stroke-linejoin="round"/>
</svg>
