<svg width="30" height="30" viewBox="0 0 30 30" fill="none" xmlns="http://www.w3.org/2000/svg">
<path fill-rule="evenodd" clip-rule="evenodd" d="M4 12.2441L4 9.91427C4 7.83568 5.64162 6.15064 7.66667 6.15064L7.8631 6.1509L21.875 6.15064H22.3333C24.3584 6.15064 26 7.83568 26 9.91428V12.2441H4Z" fill="#E4007F" fill-opacity="0.15"/>
<path d="M7.8631 4V6.1509M7.8631 6.1509L21.875 6.15064M7.8631 6.1509L7.66667 6.15064M21.875 4V6.15064M21.875 6.15064H22.3333M26 9.91428V22.2364C26 24.315 24.3584 26 22.3333 26H7.66667C5.64162 26 4 24.315 4 22.2364V9.91427M26 9.91428C26 7.83568 24.3584 6.15064 22.3333 6.15064M26 9.91428V12.2441H4L4 9.91427M22.3333 6.15064H7.66667M4 9.91427C4 7.83568 5.64162 6.15064 7.66667 6.15064" stroke="#E4007F" stroke-width="2" stroke-linecap="round" stroke-linejoin="round"/>
</svg>
