<svg width="30" height="30" viewBox="0 0 30 30" fill="none" xmlns="http://www.w3.org/2000/svg">
<path fill-rule="evenodd" clip-rule="evenodd" d="M11 27H19V17.8704C19 17.0301 18.2837 16.3488 17.4 16.3488H12.6C11.7163 16.3488 11 17.0301 11 17.8704V27Z" fill="#E4007F" fill-opacity="0.15"/>
<path d="M11 27V17.8704C11 17.0301 11.7163 16.3488 12.6 16.3488H17.4C18.2837 16.3488 19 17.0301 19 17.8704V27M11 27H19M11 27L5.4 27M19 27L24.6 27M5.4 27H24.6M5.4 27C4.07452 27 3 25.9781 3 24.7176V11.5547C3 11.0622 3.25069 10.6001 3.67276 10.3147L14.0728 3.28156C14.6279 2.90615 15.3721 2.90615 15.9272 3.28156L26.3272 10.3147C26.7493 10.6001 27 11.0622 27 11.5547V24.7176C27 25.9781 25.9255 27 24.6 27" stroke="#E4007F" stroke-width="2" stroke-linejoin="round"/>
</svg>
