<svg width="14" height="15" viewBox="0 0 14 15" fill="none" xmlns="http://www.w3.org/2000/svg">
<path d="M1.5 12.5V3.4463C1.5 3.17654 1.59431 2.95148 1.78294 2.77112C1.97157 2.59077 2.20624 2.50039 2.48694 2.5H11.5131C11.7942 2.5 12.0288 2.59037 12.2171 2.77112C12.4053 2.95187 12.4996 3.17693 12.5 3.4463V9.75245C12.5 10.0218 12.4057 10.2469 12.2171 10.4276C12.0284 10.6084 11.7938 10.6986 11.5131 10.6982H3.38039L1.5 12.5ZM3.63889 8.64862H7.91667V8.06304H3.63889V8.64862ZM3.63889 6.89187H10.3611V6.30629H3.63889V6.89187ZM3.63889 5.13512H10.3611V4.54954H3.63889V5.13512Z" fill="#999999"/>
</svg>
