<svg width="35" height="35" viewBox="0 0 35 35" fill="none" xmlns="http://www.w3.org/2000/svg">
<path d="M17.5 0C27.165 0 35 7.83502 35 17.5C35 27.165 27.165 35 17.5 35C7.83502 35 0 27.165 0 17.5C0 7.83502 7.83502 0 17.5 0ZM17.5 7.875C14.882 7.875 14.5544 7.87487 13.5342 7.93262C12.7346 7.94922 11.9434 8.10198 11.1953 8.38477C10.5524 8.62275 9.97086 9.00143 9.49219 9.49219C8.99888 9.96876 8.61979 10.5509 8.38477 11.1953C8.10198 11.9434 7.94922 12.7346 7.93262 13.5342C7.87487 14.5544 7.875 14.882 7.875 17.5C7.875 20.118 7.87487 20.4456 7.93262 21.4658C7.94922 22.2654 8.10198 23.0566 8.38477 23.8047C8.61979 24.4491 8.99888 25.0312 9.49219 25.5078C9.97086 25.9986 10.5524 26.3773 11.1953 26.6152C11.9434 26.898 12.7346 27.0508 13.5342 27.0674C14.5544 27.1251 14.882 27.125 17.5 27.125C20.118 27.125 20.4456 27.1251 21.4658 27.0674C22.2654 27.0508 23.0566 26.898 23.8047 26.6152C24.4491 26.3802 25.0312 26.0011 25.5078 25.5078C26.0007 25.0292 26.3818 24.4477 26.624 23.8047C26.8983 23.0546 27.0485 22.2643 27.0674 21.4658C27.0674 20.4456 27.125 20.118 27.125 17.5C27.125 14.882 27.1251 14.5544 27.0674 13.5342C27.0485 12.7357 26.8983 11.9454 26.624 11.1953C26.3804 10.5531 25.9995 9.97185 25.5078 9.49219C25.0312 8.99888 24.4491 8.61979 23.8047 8.38477C23.0566 8.10198 22.2654 7.94922 21.4658 7.93262C20.4456 7.87487 20.118 7.875 17.5 7.875ZM17.5 9.60742C20.031 9.60742 20.3874 9.60731 21.3496 9.66504C21.9606 9.67186 22.5667 9.78242 23.1406 9.99219C23.5779 10.1545 23.9698 10.4191 24.2852 10.7627C24.5996 11.0592 24.8467 11.4203 25.0078 11.8213C25.2219 12.4073 25.3325 13.0265 25.335 13.6504C25.3831 14.6126 25.3926 14.969 25.3926 17.5C25.3926 20.031 25.3831 20.3874 25.335 21.3496C25.3281 21.9606 25.2176 22.5667 25.0078 23.1406C24.8541 23.5594 24.6065 23.9376 24.2852 24.2471C23.9728 24.5648 23.5954 24.8111 23.1787 24.9688C22.6049 25.1785 21.9996 25.2891 21.3887 25.2959C20.4262 25.344 20.0695 25.3535 17.5381 25.3535C15.0071 25.3535 14.6509 25.3536 13.6885 25.2959C13.0541 25.3084 12.4223 25.2113 11.8213 25.0078C11.423 24.8416 11.0629 24.5952 10.7627 24.2852C10.4433 23.976 10.1988 23.5975 10.0498 23.1787C9.81408 22.5968 9.6839 21.9771 9.66504 21.3496C9.66502 20.3874 9.60742 20.031 9.60742 17.5C9.60742 14.969 9.60731 14.6126 9.66504 13.6504C9.66855 13.0257 9.78266 12.4062 10.002 11.8213C10.1714 11.415 10.4319 11.053 10.7627 10.7627C11.0543 10.4308 11.4157 10.1673 11.8213 9.99219C12.4078 9.77997 13.0267 9.66937 13.6504 9.66504C14.6126 9.66502 14.969 9.60742 17.5 9.60742ZM17.5 12.5625C16.5239 12.5644 15.5705 12.8558 14.7598 13.3994C13.949 13.9431 13.3176 14.7148 12.9453 15.6172C12.5731 16.5195 12.4765 17.5117 12.668 18.4688C12.8596 19.4259 13.3306 20.3055 14.0215 20.9951C14.7124 21.6846 15.5923 22.154 16.5498 22.3438C17.5073 22.5335 18.4997 22.4345 19.4014 22.0605C20.303 21.6865 21.0741 21.0539 21.6162 20.2422C22.1583 19.4305 22.4473 18.4761 22.4473 17.5C22.4485 16.8504 22.3215 16.2067 22.0732 15.6064C21.825 15.0063 21.4597 14.4608 21 14.002C20.5403 13.5433 19.9941 13.1797 19.3936 12.9326C18.7929 12.6856 18.1494 12.56 17.5 12.5625ZM16.875 14.3564C17.4966 14.2329 18.141 14.2965 18.7266 14.5391C19.3122 14.7817 19.8129 15.1927 20.165 15.7197C20.5171 16.2467 20.7051 16.8662 20.7051 17.5C20.7051 17.9209 20.622 18.3377 20.4609 18.7266C20.2999 19.1154 20.0642 19.469 19.7666 19.7666C19.469 20.0642 19.1154 20.2999 18.7266 20.4609C18.3377 20.622 17.9209 20.7051 17.5 20.7051C16.8662 20.7051 16.2467 20.5171 15.7197 20.165C15.1927 19.8129 14.7817 19.3122 14.5391 18.7266C14.2965 18.141 14.2329 17.4966 14.3564 16.875C14.4801 16.2533 14.7852 15.6816 15.2334 15.2334C15.6816 14.7852 16.2533 14.4801 16.875 14.3564ZM22.6396 11.2051C22.4112 11.2051 22.188 11.2735 21.998 11.4004C21.8083 11.5273 21.6597 11.7071 21.5723 11.918C21.4848 12.129 21.4623 12.3619 21.5068 12.5859C21.5514 12.8099 21.6618 13.0153 21.8232 13.1768C21.9847 13.3382 22.1901 13.4486 22.4141 13.4932C22.6381 13.5377 22.871 13.5152 23.082 13.4277C23.2929 13.3403 23.4727 13.1917 23.5996 13.002C23.7265 12.812 23.7949 12.5888 23.7949 12.3604C23.7949 12.054 23.6727 11.7605 23.4561 11.5439C23.2395 11.3273 22.946 11.2051 22.6396 11.2051Z" fill="#999999"/>
</svg>
