<svg width="35" height="35" viewBox="0 0 35 35" fill="none" xmlns="http://www.w3.org/2000/svg">
<path d="M17.5 0C27.165 0 35 7.83502 35 17.5C35 27.165 27.165 35 17.5 35C7.83502 35 0 27.165 0 17.5C0 7.83502 7.83502 0 17.5 0ZM10.5615 9.625C8.5987 9.62514 7.00014 11.2304 7 13.1865V21.8076C7 23.7706 8.60536 25.37 10.5615 25.3701H15.459L16.3027 26.8271L17.1318 28.2637C17.2802 28.5267 17.6583 28.5267 17.8135 28.2637L18.6436 26.8271L19.4863 25.3701H24.4375C26.4005 25.3701 28 23.7639 28 21.8076V13.1934C27.9999 11.2306 26.3944 9.62526 24.4316 9.625H10.5615ZM22.6904 15.9463C23.0952 15.9463 23.4728 16.0881 23.7764 16.3242V16.0205H24.8691V19.7705C24.7949 20.2427 24.458 20.6006 24.458 20.6006C23.7295 21.3291 22.9131 21.2344 22.9131 21.2344V20.2832C23.6686 20.2832 23.7764 19.7773 23.7764 19.7773V19.2646C23.4796 19.5007 23.1019 19.6426 22.6904 19.6426C21.6989 19.6424 20.8965 18.8125 20.8965 17.7939C20.8967 16.7756 21.6991 15.9464 22.6904 15.9463ZM11.209 14.792V16.3779C11.5125 16.1014 11.9041 15.9395 12.3223 15.9395C13.2935 15.9395 14.0691 16.8024 14.0693 17.8613C14.0693 18.9204 13.2869 19.7773 12.3223 19.7773C11.8973 19.7773 11.5125 19.6087 11.209 19.3389V19.6836H10.1299V14.792H11.209ZM18.4678 15.9395C19.5469 15.9395 20.4099 16.7956 20.4102 17.8545C20.4102 18.9136 19.5403 19.7705 18.4678 19.7705C17.3952 19.7705 16.5254 18.9136 16.5254 17.8545C16.5257 16.7956 17.3954 15.9395 18.4678 15.9395ZM14.1914 14.6982C14.2086 14.6961 14.9137 14.6129 15.54 15.3525C15.5432 15.3566 15.8303 15.7193 15.8975 16.2021V19.6836H14.7852V16.2295C14.6921 15.7507 14.2052 15.6777 14.1914 15.6758V14.6982ZM12.1064 16.8975C11.7085 16.8975 11.3642 17.1335 11.2158 17.4775C11.162 17.5921 11.1348 17.7207 11.1348 17.8555C11.1348 17.9901 11.1687 18.118 11.2158 18.2324C11.3642 18.5764 11.7085 18.8125 12.1064 18.8125C12.646 18.8125 13.0779 18.3882 13.0781 17.8555C13.0781 17.3225 12.6461 16.8975 12.1064 16.8975ZM18.4678 16.9375C17.9553 16.9375 17.5374 17.3488 17.5371 17.8545C17.5371 18.3604 17.9551 18.7725 18.4678 18.7725C18.9872 18.7724 19.3984 18.3604 19.3984 17.8545C19.3982 17.3488 18.9803 16.9375 18.4678 16.9375ZM22.8936 16.8428C22.3539 16.8428 21.9082 17.2687 21.9082 17.7881C21.9085 18.3073 22.3473 18.7324 22.8936 18.7324C23.2777 18.7323 23.6145 18.5228 23.7764 18.2061C23.837 18.0848 23.8778 17.9363 23.8779 17.7881C23.8779 17.6397 23.8438 17.4973 23.7764 17.3691C23.6145 17.0591 23.2777 16.843 22.8936 16.8428Z" fill="#999999"/>
</svg>
