<svg width="35" height="35" viewBox="0 0 35 35" fill="none" xmlns="http://www.w3.org/2000/svg">
<path d="M17.5 0C27.165 0 35 7.83502 35 17.5C35 27.165 27.165 35 17.5 35C7.83502 35 0 27.165 0 17.5C0 7.83502 7.83502 0 17.5 0ZM17.5 7.875C11.8005 7.875 7.00009 11.647 7 16.5C7 19.4565 8.79906 22.0273 11.4756 23.5684L10.8252 27.4414C10.81 27.5322 10.8212 27.6254 10.8574 27.71C10.8937 27.7945 10.9532 27.8676 11.0293 27.9189C11.1053 27.9702 11.1946 27.9982 11.2861 28C11.3778 28.0018 11.4688 27.9771 11.5469 27.9287L16.1797 25.0586C16.6124 25.1033 17.0526 25.125 17.5 25.125C23.1996 25.125 28 21.3531 28 16.5C27.9999 11.647 23.1995 7.875 17.5 7.875ZM21.7959 13.8643C21.9856 13.8644 22.1676 13.9405 22.3018 14.0752C22.4359 14.2099 22.5116 14.3926 22.5117 14.583V15.7236L24.1533 14.0752C24.289 13.9484 24.4689 13.8795 24.6543 13.8828C24.8395 13.8862 25.0164 13.9613 25.1475 14.0928C25.2786 14.2245 25.3541 14.4027 25.3574 14.5889C25.3606 14.775 25.2915 14.9556 25.165 15.0918L23.709 16.5537L25.2188 18.4463C25.2775 18.52 25.3214 18.6047 25.3477 18.6953C25.3739 18.786 25.3815 18.8817 25.3711 18.9756C25.3607 19.0694 25.3324 19.1605 25.2871 19.2432C25.2417 19.3259 25.1799 19.399 25.1064 19.458C25.0331 19.5169 24.9486 19.5607 24.8584 19.5869C24.7681 19.6132 24.6735 19.6217 24.5801 19.6113C24.4866 19.6009 24.3959 19.5719 24.3135 19.5264C24.2311 19.4808 24.1584 19.4194 24.0996 19.3457L22.6904 17.5762L22.5117 17.7559V18.8965C22.5116 19.0869 22.4359 19.2696 22.3018 19.4043C22.1676 19.539 21.9856 19.6151 21.7959 19.6152C21.606 19.6152 21.4233 19.5391 21.2891 19.4043C21.155 19.2696 21.0792 19.0869 21.0791 18.8965C21.079 19.0869 21.0042 19.2696 20.8701 19.4043C20.7359 19.5391 20.5532 19.6152 20.3633 19.6152H18.4541C18.2666 19.6149 18.0867 19.5403 17.9531 19.4082C17.8194 19.2759 17.7423 19.0957 17.7393 18.9072C17.7372 19.0743 17.6778 19.2358 17.5703 19.3633C17.4628 19.4907 17.3141 19.5769 17.1504 19.6064C16.9865 19.6359 16.8169 19.6074 16.6719 19.5254C16.5269 19.4433 16.4152 19.3122 16.3555 19.1562L16.1621 18.6562H14.543L14.3486 19.1562C14.3145 19.2442 14.2643 19.3254 14.1992 19.3936C14.1342 19.4617 14.0558 19.5157 13.9697 19.5537C13.8837 19.5917 13.7912 19.6122 13.6973 19.6143C13.6033 19.6163 13.5095 19.5997 13.4219 19.5654C13.3344 19.5312 13.2543 19.4802 13.1865 19.415C13.1187 19.3498 13.0642 19.2719 13.0264 19.1855C12.9885 19.0991 12.9679 19.0055 12.9658 18.9111C12.9638 18.817 12.9807 18.7235 13.0146 18.6357L14.6846 14.3232C14.7369 14.1883 14.8292 14.072 14.9482 13.9902C15.0673 13.9085 15.2083 13.8643 15.3525 13.8643C15.4967 13.8643 15.6378 13.9085 15.7568 13.9902C15.8757 14.072 15.9673 14.1884 16.0195 14.3232L17.6904 18.6357C17.7196 18.7135 17.7353 18.7958 17.7383 18.8789V14.583C17.7384 14.3926 17.8141 14.2099 17.9482 14.0752C18.0824 13.9405 18.2644 13.8644 18.4541 13.8643C18.644 13.8643 18.8267 13.9404 18.9609 14.0752C19.095 14.2099 19.1708 14.3926 19.1709 14.583V18.1768H20.3633C20.5532 18.1768 20.7359 18.2529 20.8701 18.3877C21.0043 18.5225 21.0791 18.7059 21.0791 18.8965V14.583C21.0792 14.3926 21.155 14.2099 21.2891 14.0752C21.4233 13.9404 21.606 13.8643 21.7959 13.8643ZM13.2041 13.8643C13.394 13.8643 13.5767 13.9404 13.7109 14.0752C13.845 14.2099 13.9208 14.3926 13.9209 14.583C13.9209 14.7736 13.8452 14.957 13.7109 15.0918C13.5767 15.2266 13.394 15.3018 13.2041 15.3018H12.4883V18.8965C12.4882 19.0869 12.4134 19.2696 12.2793 19.4043C12.145 19.5391 11.9623 19.6152 11.7725 19.6152C11.5827 19.6152 11.4008 19.539 11.2666 19.4043C11.1325 19.2696 11.0568 19.0869 11.0566 18.8965V15.3018H10.3408C10.1511 15.3017 9.96918 15.2264 9.83496 15.0918C9.7007 14.957 9.625 14.7736 9.625 14.583C9.62511 14.3925 9.7008 14.2099 9.83496 14.0752C9.96919 13.9405 10.151 13.8643 10.3408 13.8643H13.2041ZM15.3525 16.5684L15.0996 17.2197H15.6055L15.3525 16.5674V16.5684Z" fill="#999999"/>
</svg>
