<svg width="37" height="37" viewBox="0 0 37 37" fill="none" xmlns="http://www.w3.org/2000/svg">
<path d="M30.9801 16.7518C31.1647 16.2313 30.8925 15.6596 30.372 15.475C29.8515 15.2903 29.2799 15.5625 29.0952 16.083L30.0376 16.4174L30.9801 16.7518ZM26.867 25.3529L27.8094 25.6873L26.867 25.3529ZM24.7285 27.2044L24.9247 28.1849L24.7285 27.2044ZM6.06238 30.9376L5.07825 30.7601C5.01951 31.0859 5.12576 31.4196 5.36202 31.6514C5.59827 31.8832 5.93393 31.9831 6.25849 31.9182L6.06238 30.9376ZM9.46875 12.0477L10.4529 12.2252L9.46875 12.0477ZM11.4339 9.82132L11.7322 10.7758H11.7322L11.4339 9.82132ZM20.8809 7.91684C21.408 7.7521 21.7018 7.19123 21.5371 6.66408C21.3723 6.13694 20.8115 5.84314 20.2843 6.00788L20.5826 6.96236L20.8809 7.91684ZM5.69295 29.8928C5.30243 30.2833 5.30243 30.9165 5.69295 31.307C6.08347 31.6976 6.71664 31.6976 7.10716 31.307L6.40006 30.5999L5.69295 29.8928ZM15.2115 23.2027C15.602 22.8122 15.602 22.179 15.2115 21.7885C14.8209 21.398 14.1878 21.398 13.7973 21.7885L14.5044 22.4956L15.2115 23.2027ZM35.4405 9.66379L36.1476 8.95669L35.4405 9.66379ZM35.4405 12.3652L34.7334 11.6581L35.4405 12.3652ZM24.6347 1.55949L23.9276 0.852379V0.852379L24.6347 1.55949ZM27.3362 1.55949L26.6291 2.26659V2.26659L27.3362 1.55949ZM21.258 7.63772L21.9651 6.93061L21.258 7.63772ZM21.258 4.93628L21.9651 5.64339V5.64339L21.258 4.93628ZM29.3623 15.742L28.6552 16.4491L29.3623 15.742ZM32.0637 15.742L32.7708 16.4491L32.0637 15.742ZM30.0376 16.4174L29.0952 16.083L25.9245 25.0185L26.867 25.3529L27.8094 25.6873L30.9801 16.7518L30.0376 16.4174ZM24.7285 27.2044L24.5324 26.2238L5.86626 29.957L6.06238 30.9376L6.25849 31.9182L24.9247 28.1849L24.7285 27.2044ZM6.06238 30.9376L7.0465 31.1151L10.4529 12.2252L9.46875 12.0477L8.48463 11.8702L5.07825 30.7601L6.06238 30.9376ZM11.4339 9.82132L11.7322 10.7758L20.8809 7.91684L20.5826 6.96236L20.2843 6.00788L11.1357 8.86684L11.4339 9.82132ZM9.46875 12.0477L10.4529 12.2252C10.5762 11.5415 11.0691 10.983 11.7322 10.7758L11.4339 9.82132L11.1357 8.86684C9.76165 9.29621 8.74009 10.4536 8.48463 11.8702L9.46875 12.0477ZM26.867 25.3529L25.9245 25.0185C25.705 25.6373 25.1763 26.095 24.5324 26.2238L24.7285 27.2044L24.9247 28.1849C26.2588 27.9181 27.3544 26.9695 27.8094 25.6873L26.867 25.3529ZM6.40006 30.5999L7.10716 31.307L15.2115 23.2027L14.5044 22.4956L13.7973 21.7885L5.69295 29.8928L6.40006 30.5999ZM29.3623 15.742L30.0694 15.0349L21.9651 6.93061L21.258 7.63772L20.5508 8.34482L28.6552 16.4491L29.3623 15.742ZM21.258 4.93628L21.9651 5.64339L25.3419 2.26659L24.6347 1.55949L23.9276 0.852379L20.5508 4.22917L21.258 4.93628ZM27.3362 1.55949L26.6291 2.26659L34.7334 10.3709L35.4405 9.66379L36.1476 8.95669L28.0433 0.852378L27.3362 1.55949ZM35.4405 12.3652L34.7334 11.6581L31.3566 15.0349L32.0637 15.742L32.7708 16.4491L36.1476 13.0723L35.4405 12.3652ZM35.4405 9.66379L34.7334 10.3709C35.0888 10.7264 35.0888 11.3027 34.7334 11.6581L35.4405 12.3652L36.1476 13.0723C37.2841 11.9358 37.2841 10.0932 36.1476 8.95669L35.4405 9.66379ZM24.6347 1.55949L25.3419 2.26659C25.6973 1.91114 26.2736 1.91114 26.6291 2.26659L27.3362 1.55949L28.0433 0.852379C26.9068 -0.284127 25.0641 -0.284126 23.9276 0.852379L24.6347 1.55949ZM21.258 7.63772L21.9651 6.93061C21.6096 6.57515 21.6096 5.99885 21.9651 5.64339L21.258 4.93628L20.5508 4.22917C19.4143 5.36568 19.4143 7.20832 20.5508 8.34482L21.258 7.63772ZM29.3623 15.742L28.6552 16.4491C29.7917 17.5856 31.6343 17.5856 32.7708 16.4491L32.0637 15.742L31.3566 15.0349C31.0011 15.3904 30.4248 15.3904 30.0694 15.0349L29.3623 15.742ZM15.1797 16.4174L15.8868 17.1245C16.9883 16.0231 18.7741 16.0231 19.8755 17.1245L20.5826 16.4174L21.2897 15.7103C19.4072 13.8278 16.3551 13.8278 14.4726 15.7103L15.1797 16.4174ZM20.5826 16.4174L19.8755 17.1245C20.9769 18.2259 20.9769 20.0117 19.8755 21.1131L20.5826 21.8203L21.2897 22.5274C23.1722 20.6449 23.1722 17.5928 21.2897 15.7103L20.5826 16.4174ZM20.5826 21.8203L19.8755 21.1131C18.7741 22.2146 16.9883 22.2146 15.8868 21.1131L15.1797 21.8203L14.4726 22.5274C16.3551 24.4098 19.4072 24.4098 21.2897 22.5274L20.5826 21.8203ZM15.1797 21.8203L15.8868 21.1131C14.7854 20.0117 14.7854 18.2259 15.8868 17.1245L15.1797 16.4174L14.4726 15.7103C12.5901 17.5928 12.5901 20.6449 14.4726 22.5274L15.1797 21.8203Z" fill="#777777"/>
<path d="M0.999989 35.7712L29.6791 35.7712" stroke="#777777" stroke-width="2" stroke-linecap="round" stroke-linejoin="round"/>
</svg>
