<svg width="42" height="35" viewBox="0 0 42 35" fill="none" xmlns="http://www.w3.org/2000/svg">
<path d="M36.5 20C38.9853 20 41 17.9853 41 15.5C41 13.0147 38.9853 11 36.5 11" stroke="#777777" stroke-width="2"/>
<path d="M1 12.7925C1 10.0311 3.23858 7.79248 6 7.79248H13.0755V22.8868H6C3.23858 22.8868 1 20.6483 1 17.8868V12.7925Z" stroke="#777777" stroke-width="2"/>
<path d="M4.77344 22.8868H9.30174V32.4529C9.30174 33.0052 8.85402 33.4529 8.30174 33.4529H5.77344C5.22115 33.4529 4.77344 33.0052 4.77344 32.4529V22.8868Z" stroke="#777777" stroke-width="2"/>
<path d="M13.0754 9.28052C13.0754 8.3973 13.6548 7.61866 14.5007 7.36487L33.1422 1.77241C34.4255 1.38744 35.7169 2.34834 35.7169 3.68806V26.9912C35.7169 28.3309 34.4255 29.2918 33.1422 28.9069L14.5007 23.3144C13.6548 23.0606 13.0754 22.282 13.0754 21.3987V9.28052Z" stroke="#777777" stroke-width="2"/>
</svg>
