<svg width="300" height="299" viewBox="0 0 300 299" fill="none" xmlns="http://www.w3.org/2000/svg">
<path d="M230.533 225.208C229.998 226.716 229.9 226.716 230.29 227.154C231.558 228.613 232.483 228.126 232.289 228.516C233.02 227.154 233.848 226.035 234.629 225.841L235.847 226.57C235.945 224.77 236.286 223.749 236.53 222.727C236.871 221.658 237.114 220.441 236.92 219.322L236.091 217.523C235.701 216.842 235.604 216.696 235.067 215.869C233.995 215.917 233.946 217.036 233.605 217.815C233.264 218.544 232.971 219.225 232.874 220.052C233.557 220.782 233.507 221.609 233.507 222.387L233.41 224.041C233.361 224.77 232.386 224.479 231.752 224.624L230.533 225.111V225.208ZM214.155 284.745L214.69 284.501L214.203 284.745H214.155ZM82.5338 16.1002C85.1175 14.7869 87.7496 13.5709 90.4308 12.4035H90.3825C87.7014 13.4736 85.1175 14.7869 82.5338 16.1002ZM123.287 25.6338L123.434 24.3205L122.8 23.3964C122.118 22.4236 122.264 20.7697 121.971 19.6996L121.776 18.3864C121.776 17.4135 122.215 16.5866 121.874 15.6624C121.581 14.6409 121.289 12.1116 121.143 11.0902C120.996 10.166 121.094 9.53368 120.704 8.65811C120.265 7.63663 120.313 6.56656 119.972 5.49641L118.705 4.13449L118.169 3.5508C108.566 5.64232 99.3036 8.65811 90.4799 12.4521L90.9183 12.9385C91.3575 13.7168 92.0887 14.6409 92.2834 15.5165C92.4789 16.3434 92.137 17.4621 92.0887 18.3377C91.8932 20.0401 92.0887 22.0831 92.3325 23.7854L92.4789 25.9743C93.3074 26.8012 93.9413 28.2118 94.8672 28.7469L96.8171 27.5795C97.9867 27.0931 98.4742 26.9958 99.3518 26.9958C100.132 26.8985 100.912 26.8499 101.643 26.8012C102.326 26.8012 102.472 27.2876 103.252 27.1417C104.032 26.9471 104.568 26.4607 105.348 26.1689C106.177 25.9743 107.054 25.6338 107.932 25.5366C109.784 25.2933 110.516 24.3692 112.026 23.9314C112.856 23.6395 114.22 23.1045 114.903 22.8613C115.585 22.7154 115.585 22.8126 116.17 22.5695C116.901 22.3749 117.243 22.229 118.12 22.3749C118.754 22.4721 119.144 22.764 119.875 23.1045L120.947 23.6882L121.728 24.0287C122.653 24.2233 122.653 25.1961 123.385 25.6338M83.1188 29.0387L83.0213 31.3735C83.2163 31.8599 83.8501 31.9086 84.6788 32.0058L85.3125 30.7412L87.4086 30.4007L86.4336 27.6281L84.3863 28.2605C83.9475 28.2605 83.4113 28.2605 83.1188 29.0874M94.6234 47.2791L94.477 46.5495L95.2573 46.1118C97.0117 46.6468 98.7179 46.209 100.083 46.0631C101.399 45.8685 103.252 46.209 104.47 45.4794C105.982 44.7011 108.419 45.1876 110.076 45.0416L110.369 45.9658C111.1 45.4308 111.588 45.4308 112.514 44.9444C113.879 44.2634 114.269 44.4093 116.024 44.6525C116.999 44.5066 118.656 45.6253 119.193 45.3821C119.924 44.993 120.168 44.6525 120.899 44.8471L122.166 45.674C123.434 45.2362 121.971 43.8743 121.776 43.1446L121.678 42.1231C121.581 41.1503 121.143 40.518 121.435 39.5452L121.825 37.7941V36.8213L121.678 35.3134C121.63 34.2919 121.484 33.5624 121.678 32.6868C121.874 31.7626 122.361 29.5738 122.459 28.7469V28.5523L122.118 28.6496L121.288 28.2118C120.46 27.9686 120.46 30.4493 119.826 30.5953C118.803 30.8384 118.169 31.1789 117.097 30.8871L116.414 30.9843L115.049 31.2762C114.074 31.2762 113.197 31.5681 112.173 31.6653C111.344 31.8112 110.418 31.8599 109.541 32.0545C108.809 32.2004 106.275 32.8814 105.494 32.8814C104.811 32.8814 103.739 33.0273 102.764 33.0273C102.13 33.0273 101.302 32.2976 100.62 32.395C97.2555 32.6381 99.5955 33.1732 97.5483 32.8814C96.8171 32.7355 96.135 32.1031 95.3056 32.3463C94.3797 32.5896 93.4047 32.6381 92.4298 32.7355C92.5271 33.5137 92.0396 33.9514 92.0396 34.5352C91.9914 35.2162 92.2834 36.043 92.2351 36.724C92.2351 37.5509 91.7959 38.5237 91.8932 39.302C92.0396 40.2748 92.137 39.837 92.2351 41.7827L92.8682 43.6797C93.2583 44.312 93.5021 43.9715 93.9413 45.0416V46.209L94.136 47.2305H94.5743L94.6234 47.2791ZM290.056 96.9903C290.69 98.6927 291.421 100.346 292.006 102.098C291.469 100.541 290.982 98.9361 290.348 97.3798L290.007 96.9412L290.056 96.9903ZM227.511 21.6939C230.29 23.3477 232.923 25.1961 235.555 27.0445C235.555 26.9958 235.555 26.9471 235.555 26.8499C232.971 25.0502 230.241 23.3477 227.56 21.6939M1.51407 129.288C1.9528 126.029 2.44029 122.722 3.12277 119.511C2.44029 122.722 1.90405 125.98 1.46532 129.288C1.46532 129.288 1.51407 129.288 1.56282 129.288M145.955 63.2334L145.176 64.3521L145.81 65.5195L148.491 65.179L150.635 65.9573L150.782 65.6654V64.7899L149.075 63.7198L145.955 63.1847V63.2334ZM69.0306 114.841C67.9093 114.89 68.2019 114.744 68.3481 115.668C68.4943 116.349 69.7618 116.349 70.298 116.203C71.078 116.155 71.468 115.668 72.4429 115.717L72.7354 114.404C72.5892 113.625 72.1504 114.209 71.468 113.917L70.0055 113.723L69.0793 114.841H69.0306ZM185.149 143.15L187.001 142.616C186.514 141.886 185.101 139.989 184.71 139.892L182.42 141.643L181.493 141.108L180.664 142.372L180.957 143.929C180.811 146.507 183.345 143.443 183.492 143.15H185.149ZM195.435 212.318L197.58 213.096L197.922 214.751L198.019 215.577L197.775 216.501C197.385 217.328 196.654 218.204 196.166 219.031C195.581 219.809 195.484 220.733 194.753 221.755L193.778 222.971C193.144 223.36 191.925 223.214 191.194 223.165C190.073 223.02 189.195 223.02 187.976 223.068C186.952 223.117 186.027 223.165 185.002 223.262L183.443 223.555L182.224 223.943C181.445 223.749 180.615 223.798 179.884 223.652C178.958 223.408 178.178 223.165 177.301 223.165L175.156 222.825C175.156 221.609 173.352 222.144 172.669 222.436C171.646 222.727 170.671 222.484 169.647 222.776L168.575 223.749L170.037 223.408L171.987 225.938C172.377 226.473 172.865 226.862 173.206 227.689L174.132 228.905V230.072C174.132 230.753 173.108 231.628 173.206 232.164L174.083 233.088C174.765 233.769 174.815 233.818 174.912 234.791C175.009 235.666 175.399 235.958 175.74 236.785C176.033 237.466 176.131 238.05 176.521 238.682C177.057 239.46 177.447 239.897 177.837 240.871C178.568 242.573 179.543 243.886 180.811 245.248C182.565 246.951 183.833 249.043 185.539 250.939C186.076 251.571 186.076 252.058 185.539 253.177C185.636 254.052 185.88 252.058 188.026 254.442L189.244 255.609L189.926 256.192L191.048 257.019L191.632 257.116C192.072 257.7 192.461 258.138 192.851 258.819L193.826 259.889L194.314 260.959C194.948 261.786 196.264 262.176 196.947 262.662C197.726 263.245 198.067 263.294 198.457 264.17C198.847 265.045 197.921 265.58 197.336 266.359C196.507 267.428 196.069 268.109 195.191 268.937C193.923 270.055 191.486 271.514 189.878 271.514C189.098 271.563 188.708 271.612 187.635 271.174C186.709 270.833 186.611 270.736 185.88 270.104C185.052 269.374 182.711 269.471 181.834 268.888L180.762 267.137C180.226 266.359 179.348 265.045 178.861 263.975C178.471 263.099 178.617 262.467 178.13 260.862C177.788 259.987 177.642 259.306 177.203 258.333L175.643 257.116L175.009 256.631C174.23 256.047 173.742 254.588 173.498 253.566C173.255 252.545 172.767 251.912 171.987 250.405C171.646 249.043 171.45 248.702 171.305 247.924C171.061 246.902 170.817 245.832 170.622 244.811C170.475 244.179 170.33 243.351 170.378 242.184C170.378 241.308 169.159 240.822 168.769 239.752C168.282 238.633 165.016 243.449 164.724 243.935C162.725 246.903 160.238 249.675 157.899 252.204C157.216 252.885 156.778 253.858 156.144 254.588C154.973 256.047 154.876 255.852 155.023 256.582C155.072 256.922 153.316 258.625 152.682 259.695C151.903 260.911 151.805 262.176 151.366 263.538L150.782 265.629C150.441 266.213 150.001 265.872 149.222 266.845C148.88 267.234 146.248 270.785 145.468 271.952L144.005 273.023L143.079 273.849L141.958 274.433C141.568 274.628 141.47 273.411 141.08 274.725L138.546 276.33C138.058 276.816 136.449 277.887 135.718 278.032C134.792 278.227 133.915 277.497 133.086 277.352C132.159 277.157 131.672 277.546 131.283 277.254L130.112 275.649L131.087 274.238C131.233 273.704 131.672 273.168 132.062 272.39L133.33 270.25C133.865 269.569 135.328 268.693 135.962 267.575C136.645 266.456 137.376 265.191 138.155 264.073C139.277 262.516 141.617 259.111 142.348 258.527C144.444 256.825 145.955 254.685 147.71 252.593C149.27 250.745 150.879 248.945 152.39 247.097C152.878 246.562 153.414 245.978 153.755 245.297C154.048 244.664 154.048 243.74 154.487 243.205L155.754 241.746C156.241 241.017 156.631 240.481 156.972 239.752C158.045 237.952 158.825 236.931 160.044 235.082C161.457 232.99 162.432 230.753 163.456 228.516C163.797 227.786 163.603 226.959 163.7 226.229L163.456 224.965L163.553 223.652L162.774 223.068C161.799 223.117 161.896 223.408 160.872 223.36C159.849 223.262 158.825 223.068 157.801 223.165C156.778 223.262 155.656 223.165 154.632 223.165L153.024 222.874L151.416 221.56L151.561 222.581L150.001 223.068C148.295 223.165 146.882 222.484 145.322 223.457L144.103 222.971C143.567 222.144 142.982 220.538 141.91 219.663L141.08 218.982C140.642 218.788 140.739 219.274 140.301 218.593L140.204 218.204L139.716 215.188L140.447 213.875C141.958 213.826 143.177 214.751 144.639 214.896C146.102 215.042 147.369 215.334 148.734 215.236C149.417 215.188 150.05 215.139 150.586 215.139L151.416 215.48L152.39 215.626C153.365 215.383 153.707 214.848 154.34 214.507C155.023 214.167 155.997 214.167 156.875 213.972C158.532 213.631 160.238 214.312 161.994 214.312H164.528C165.503 214.312 166.868 214.312 167.794 214.07C169.013 213.826 168.867 213.68 169.891 213.583C171.549 213.534 173.157 213.826 174.765 213.389C175.692 213.145 176.618 212.708 177.545 212.221C177.545 211.443 177.545 210.665 177.642 209.935C177.837 207.941 177.593 206.286 177.398 205.265C177.203 200.256 177.301 199.331 177.301 198.65C177.252 194.273 177.349 197.434 177.301 195.489C177.301 194.808 177.155 194.03 177.739 192.327C177.837 190.429 177.739 188.435 177.837 186.587C178.032 184.058 178.276 183.377 178.032 181.772L177.837 179.437C177.886 178.707 178.324 169.611 178.324 168.688C178.324 167.471 179.689 161.197 178.568 160.564C177.788 160.126 178.032 157.743 178.178 156.818C178.276 155.797 178.324 154.338 177.788 153.512C177.545 151.42 177.447 146.312 177.739 144.221C178.032 142.616 178.52 141.497 177.886 140.038C177.886 139.114 177.642 136.827 177.545 135.855C177.447 134.979 177.642 134.152 177.69 133.228L177.545 131.574V130.942V129.92V129.191C176.862 128.851 177.008 128.072 176.959 127.489L176.813 126.029C176.813 124.91 177.301 124.035 177.545 122.965C177.788 121.895 177.301 121.554 176.764 120.582L175.887 119.22C175.205 118.976 175.058 118.49 174.473 118.343C173.645 118.052 173.498 117.225 172.865 116.739L171.89 115.863C172.182 115.96 170.671 114.55 168.282 112.944C168.234 112.117 167.356 110.902 167.649 110.026L168.136 109.734L168.526 109.393L169.306 108.859L169.842 108.518L171.109 108.372L172.084 108.664L173.645 109.296L174.571 109.929L175.789 110.367C176.57 110.61 177.398 110.707 178.227 110.804C179.007 110.902 179.787 110.804 180.567 110.804C181.201 110.804 181.932 110.902 182.565 110.999C184.077 111.145 185.734 112.556 186.904 113.285L188.416 114.793C188.708 115.182 188.659 115.036 188.951 115.717C189.342 116.69 190.024 116.981 190.804 117.565C191.535 118.003 191.291 118.636 191.438 119.317L191.632 120.873C191.73 122.138 190.024 122.526 189.829 123.646C189.683 124.569 191.048 125.299 190.853 126.467C190.707 127.391 190.707 128.121 190.463 128.851C190.122 129.872 190.219 131.088 190.17 132.06C190.121 133.276 189.732 134.638 189.975 135.806C190.267 137.217 190.56 137.946 190.122 139.502C189.829 140.962 190.073 142.032 190.267 143.394C190.609 145.437 190.414 147.674 190.366 149.717C190.316 152.247 190.414 154.727 190.366 157.208C190.316 158.229 190.56 159.689 190.219 160.613C189.975 161.391 190.122 161.294 189.78 161.878C189.244 162.899 189.342 164.261 189.439 165.283C189.683 167.471 189.098 169.709 189.39 171.995C189.829 174.962 189.195 177.978 189.244 180.945C189.244 182.502 189.244 184.349 189.683 185.809C190.414 188.825 188.561 192.619 190.658 195.392C190.658 196.558 190.658 197.677 190.658 198.845C190.755 200.207 190.511 200.207 189.829 201.325C189.244 202.152 189.049 202.444 188.513 203.32L189.78 204.584C190.073 205.508 190.122 206.286 189.878 206.967C189.585 207.746 188.561 208.038 187.927 208.622L187.245 209.838C188.026 209.838 188.415 210.178 189.342 210.47C190.95 211.005 191.876 211.102 192.315 211.491C192.998 212.027 193.192 212.415 193.923 212.562C195.191 212.562 194.655 212.367 195.825 212.415M168.477 119.22C170.183 120.386 169.306 120.727 169.94 122.138L170.719 123.256C171.256 124.521 170.622 131.234 170.574 132.158C170.475 133.471 171.743 135.319 170.866 136.292C170.817 136.341 170.525 142.665 170.622 144.95L170.33 145.777C170.232 147.529 170.134 149.133 171.353 150.544C172.524 151.954 171.743 154.29 171.743 155.992L170.525 156.673L169.988 159.008C169.988 161.294 169.306 163.531 169.55 165.866C169.696 166.985 169.55 168.104 169.55 169.271V171.022L169.696 173.6C168.769 176.276 169.988 177.686 169.988 180.361C169.988 181.091 170.183 182.209 169.988 182.842C169.111 185.858 169.647 188.97 169.988 192.035C170.134 193.349 170.866 194.661 169.891 195.877C169.355 196.51 168.818 196.655 168.38 197.58C168.038 198.456 168.087 198.65 167.6 199.331C167.356 199.575 167.502 199.575 166.576 200.499C166.235 200.79 165.406 202.201 164.675 202.98C163.749 204.001 163.066 205.12 161.603 205.411C160.531 205.605 160.531 204.974 159.703 204.633C158.094 203.952 159.069 201.471 158.922 200.109C158.776 198.407 159.02 196.704 159.118 195.051C159.215 193.349 158.288 193.056 158.387 191.159C158.484 188.63 158.435 186.246 158.728 183.766C158.922 182.258 159.556 181.042 159.849 179.583C160.337 177.491 159.8 174.621 159.556 172.578C159.362 170.487 159.703 168.395 159.556 166.352L159.362 164.796C159.215 163.531 159.166 161.391 159.459 160.175H160.726L161.799 158.132V157.597C162.335 156.867 163.163 156.576 163.163 156.381L163.31 155.846C163.407 155.505 161.36 154.678 160.58 154.63C160.093 154.63 158.776 154.095 157.85 154.63L158.532 155.359L158.874 157.354L158.532 157.938C157.606 158.083 157.07 158.229 155.364 158.521C154.34 158.959 153.707 158.619 152.829 159.251L151.61 160.272C150.538 160.467 149.66 159.494 148.685 159.3C147.71 159.202 146.394 159.494 145.419 159.64C144.688 159.835 144.103 159.738 143.567 159.738C142.202 159.835 141.276 160.71 139.911 160.37C137.571 159.835 135.084 157.938 134.256 155.797C133.915 155.019 133.768 155.165 133.378 154.581C132.793 153.803 133.232 152.587 133.378 151.76C134.451 151.76 135.523 151.857 136.498 151.469C137.522 151.176 137.814 150.447 139.033 150.447C140.983 150.447 142.885 150.739 144.736 150.885C146.345 150.982 147.661 150.544 149.173 150.35C150.05 150.252 150.733 150.058 151.416 149.863C152.682 149.62 153.999 149.717 155.315 149.814C155.9 149.814 159.263 151.322 157.947 149.377C157.557 148.696 159.362 147.334 159.313 146.604L158.825 145.923L158.971 145.145C159.069 142.907 158.532 140.086 159.263 137.898L160.337 137.703C159.362 136.973 160.093 135.758 159.263 134.784C158.581 133.957 158.143 134.2 157.996 132.936C157.996 132.158 158.288 131.282 158.191 130.455C158.094 129.726 157.85 129.142 157.801 128.267C157.704 126.369 157.655 125.008 156.534 123.84L154.632 122.722C153.804 122.041 153.414 120.63 152.732 119.803C151.757 118.636 151.659 118.003 150.099 117.274C150.294 116.593 150.684 116.3 150.928 115.912L151.464 114.793C151.854 114.257 152.098 114.16 152.732 113.82C153.414 114.306 154.973 114.112 155.851 114.112C157.314 114.112 157.46 115.619 158.776 116.3C160.19 117.03 161.165 116.836 161.847 118.101L161.994 117.177L163.894 117.274C165.406 117.42 167.209 118.295 168.428 119.171M158.24 104.822C158.24 106.718 158.094 108.567 157.996 110.415C156.144 110.755 153.219 109.053 152.439 107.594C153.219 105.843 155.217 106.281 156.241 104.675C158.24 104.773 156.875 104.675 158.24 104.773M184.369 278.908L184.808 277.303C184.808 277.303 186.709 276.913 186.709 275.99C186.709 275.99 189 276.184 189.536 277.546C189.536 277.546 188.951 280.27 191.145 279.053L192.315 278.713L192.705 280.173C192.705 280.173 191.048 281.292 191.584 282.264C191.584 282.264 187.343 281.826 186.563 279.783C186.563 279.783 185.734 277.4 184.369 278.956M190.755 70.6268C190.707 69.5567 190.755 68.438 190.755 67.3192C192.364 67.0761 193.485 66.6382 193.485 66.6382L194.948 66.8328C194.557 68.5353 195.142 68.7298 196.897 69.0217C198.555 69.3135 198.798 71.1619 199.14 72.1833C199.14 72.3779 196.947 71.7942 195.972 71.5997C194.167 71.3564 192.072 70.7728 190.707 70.5782M76.2452 53.1647C76.2452 53.1647 75.6603 53.5538 75.9528 55.0617L76.1477 56.7642H74.9291C74.9291 56.7642 73.4666 54.0889 72.1504 54.6239L72.3942 52.581L73.9053 51.6568L76.294 53.2133L76.2452 53.1647ZM83.9475 202.882C85.6537 202.784 87.555 202.444 89.1639 202.931L91.4057 203.855C92.2834 204.439 92.6244 204.73 93.7458 205.023C94.7208 205.314 95.8421 205.557 96.8171 205.946C97.743 206.238 97.4992 206.53 97.9385 207.211C98.2795 207.989 98.4259 208.67 97.9867 209.351L97.2555 210.372L96.135 211.249L94.2824 212.464C91.3084 212.853 87.9934 212.464 85.02 212.464C83.1188 212.464 81.0714 212.075 79.1702 212.27C77.074 212.464 75.0265 212.805 72.8329 212.853C70.883 212.95 68.9331 212.853 66.9831 212.853C64.8869 212.853 62.8395 212.853 60.7433 213.486C59.4271 213.924 58.7446 214.167 57.2334 214.215C55.6247 214.264 54.0161 214.41 52.4561 214.848C51.3837 215.139 50.0674 214.653 48.9462 214.799C47.5325 214.896 46.1676 215.626 44.7051 215.626V215.529L43.4377 216.647C40.9027 216.745 38.4166 216.988 35.9304 217.182C34.0779 217.377 33.9317 216.988 32.7617 216.015C31.7868 215.139 31.1531 215.48 29.5444 214.312C28.4719 214.07 27.497 213.729 26.6683 213.194L25.742 212.513L25.352 211.54C24.8645 210.665 23.3046 209.935 22.9146 209.108L23.4021 206.822C24.3283 206.725 24.6208 206.627 25.4982 206.87C26.1807 207.114 26.7658 207.26 27.5945 207.357C29.4469 207.454 32.128 206.967 33.8342 207.746C34.9067 208.184 34.8579 208.719 36.2229 208.767C37.2954 208.816 38.5141 208.767 39.6353 208.816C40.9515 208.816 41.7314 208.427 43.0476 208.232C45.6801 207.892 48.3612 208.525 50.9936 208.232C52.0661 208.086 53.0898 207.941 54.1623 207.844C56.1122 207.551 58.0621 207.357 60.0121 207.211C60.7921 207.114 61.6208 206.87 62.157 206.335L62.4983 204.633C62.0595 203.465 61.2308 202.59 60.6946 201.422C60.1096 200.06 60.1584 199.331 59.0371 198.115C55.4785 194.418 56.5997 197.336 55.0398 193.105C54.211 191.159 52.5536 191.597 52.0661 189.651C52.5536 188.776 54.9423 188.435 56.2097 187.317C56.8434 187.366 57.2822 187.706 57.9159 187.949C58.5984 188.241 59.4271 188.144 60.0609 188.63C60.8896 189.165 61.4258 189.992 62.0595 190.673C62.742 191.403 63.522 191.694 64.3019 192.278C65.2769 192.911 66.3981 193.543 67.5193 193.981L69.1281 194.564C70.2493 195.342 71.1267 196.461 72.0042 197.58L72.8329 198.796L73.0766 200.499C73.2229 201.569 73.3204 202.444 72.8816 203.563C72.6866 203.952 71.468 205.217 72.9791 205.265C74.3928 205.265 75.3678 205.265 76.7816 205.071C77.5615 204.974 78.439 204.973 79.3164 204.827C80.7301 204.633 82.68 204.293 83.9475 202.98M204.307 166.79C203.819 165.671 206.355 164.505 206.94 163.531L207.768 161.197L209.328 160.37C209.572 160.175 210.644 162.607 210.596 164.164C210.499 165.38 216.836 165.964 217.567 167.277C218.346 168.688 216.153 169.757 215.275 170.098C213.228 170.828 212.838 169.709 211.034 169.514C209.621 169.32 207.866 169.32 206.355 169.514C205.526 168.492 204.794 167.763 204.307 166.742M218.103 226.229V226.764L218.2 227.543C217.567 227.689 216.25 228.126 216.25 227.884L215.812 226.424L214.886 225.792C215.665 224.917 215.422 224.965 216.006 224.917H216.348L217.811 225.111C218.59 224.917 218.103 225.841 218.103 226.229ZM289.715 96.6498L290.007 97.0393C279.233 68.5353 260.124 44.2147 235.506 27.0445C235.506 29.136 235.555 31.1789 235.701 33.076L236.042 34.9243C235.994 35.9944 235.165 36.2376 234.775 37.405C236.042 38.086 236.286 38.2805 236.286 39.6911C236.189 40.9557 235.994 41.7827 236.189 42.9501C236.335 44.0202 236.335 45.0416 236.335 46.0631C235.798 46.3063 235.408 46.5982 234.092 46.9387C232.776 47.1818 233.215 46.7441 232.338 46.209C231.655 46.3063 229.558 47.2791 229.608 47.0846L230.583 49.6139C231.021 49.5166 234.239 49.1761 234.921 49.1275L236.091 49.0302L236.286 50.0517C237.066 51.6568 240.04 51.6082 241.453 50.9758C242.234 50.6353 242.672 49.8571 243.452 49.5653L245.304 49.4194H246.913L247.401 49.6139L248.473 50.1003C249.302 50.4894 250.179 50.7813 251.106 50.8299L252.324 50.684C253.348 50.2948 253.056 49.3707 254.615 49.9544L256.322 51.0732C257.248 51.8027 258.613 52.7269 259.442 53.5538C260.417 54.6239 259.831 55.4508 260.173 56.8614C259.393 57.2019 258.711 58.0288 258.077 58.5639C257.005 59.4394 255.834 60.2177 254.615 60.8013C253.543 61.2878 252.763 61.0446 251.691 61.2391C250.375 61.4337 250.179 61.6769 248.668 61.1905C246.718 60.4608 244.427 60.7041 242.282 60.6554C241.112 60.6554 240.04 60.6068 238.967 60.4122C238.089 60.169 237.602 59.6826 236.871 59.3421L236.286 59.1475C236.042 59.0016 235.652 59.1475 235.019 59.488V60.0231L234.97 61.5796C234.97 62.8929 234.921 64.0603 234.726 65.2764L233.702 67.8056C234.044 68.6325 234.288 68.7298 234.58 69.3622C234.775 70.87 234.044 71.6483 235.165 72.0861C235.116 73.0102 235.116 73.8858 235.165 74.7614C235.165 76.1233 235.165 77.1447 235.311 78.5067C235.506 80.2091 235.116 81.6198 234.775 83.079C234.482 84.2948 234.58 85.1219 234.336 86.4839C234.092 87.8941 232.63 88.3807 231.948 89.6455C231.508 90.4237 231.216 91.7367 230.875 92.6128C231.752 92.2723 232.532 91.8828 233.557 92.029C234.531 92.1262 235.457 92.3695 236.286 92.6128C237.7 92.9533 239.406 92.6128 240.82 93.2448C242.136 93.8776 243.403 95.0445 244.719 95.7254C245.938 96.3583 246.865 97.2336 248.668 98.6927C249.594 99.4709 251.641 100.201 252.032 101.368C252.227 102.049 251.885 102.244 251.788 102.779C251.691 103.362 251.544 104.529 251.3 105.259C250.765 106.621 249.35 106.037 247.888 106.281C245.987 106.572 244.769 108.129 242.575 107.934C239.064 107.692 235.604 106.232 232.094 106.037C228.925 105.843 228.827 105.405 225.854 106.281C224.051 106.718 222.539 106.281 220.589 106.816C219.663 107.059 219.955 106.33 219.078 105.989L218.931 105.891C219.712 105.21 219.906 104.919 220.881 104.773L222.003 104.529L221.564 103.508L219.663 102.535C218.883 102.779 218.444 103.022 217.615 103.265L217.03 105.016L216.348 105.6L214.934 105.697C214.106 105.746 213.472 106.184 212.79 106.378C211.424 106.621 209.134 106.086 207.719 106.037C203.966 105.891 201.967 106.378 198.213 106.572C194.606 106.718 190.267 107.497 186.611 107.837C184.369 108.08 182.517 108.567 179.933 109.783C178.324 109.442 176.57 108.956 175.156 108.712C173.986 108.47 173.011 108.324 172.084 107.692C171.499 107.351 170.427 106.524 170.037 105.891C169.452 104.968 169.696 103.848 169.94 102.535L172.426 101.806L174.522 100.055V98.3522L171.061 99.2275C170.622 98.6927 170.475 98.7899 170.622 98.1579L170.768 97.0393C170.719 95.8226 170.232 94.8501 170.281 93.4881C170.427 91.9318 170.427 89.986 170.622 89.1589C170.768 88.2836 170.622 87.4083 170.817 86.4839C171.305 84.5381 171.695 82.8847 172.182 80.7929C172.474 79.2363 170.768 76.6583 170.768 75.2478C170.768 74.5181 169.988 74.275 170.232 72.913C170.525 70.9187 173.79 71.3564 174.765 71.4051C175.936 71.5024 176.667 71.4051 177.155 72.1347C177.983 73.3507 177.69 73.1561 179.251 73.4966C179.933 73.6912 180.079 73.7399 180.713 74.0317C181.346 74.3722 182.42 74.7614 182.809 75.2964L183.296 76.8042L184.564 78.5553C185.198 79.5768 185.198 80.0145 185.149 81.3278C185.052 82.5923 185.198 83.6138 185.393 84.7815C185.442 85.6568 185.393 87.1159 184.905 87.8459L183.784 88.8674V90.7642C183.882 92.661 183.93 95.8716 183.443 97.9146L184.954 98.2551C187.586 98.6927 190.219 98.3032 192.851 98.5956C193.485 98.6437 193.144 98.5956 194.411 98.1579L195.289 97.7203L197.385 97.6222C198.263 97.6712 199.14 97.5741 199.969 97.5251H201.675L202.406 97.9627C203.186 97.9627 203.429 97.9627 204.502 97.8656C206.891 97.6222 207.866 96.8931 210.255 96.6988C212.205 96.5036 213.959 96.4064 215.714 95.8226C217.713 95.1416 219.809 95.9206 221.808 95.8226C224.099 95.7254 221.808 95.4339 224.002 95.0444C224.538 94.9473 225.22 94.753 225.902 94.4606L225.269 93.5853C224.927 92.5638 224.586 92.1752 224.44 91.0557C224.294 89.7917 224.002 88.575 223.855 87.3111C223.807 86.4839 223.563 85.3653 223.368 84.49C223.221 83.3705 222.783 83.079 222.442 82.1065L223.368 77.6312C223.952 75.8801 223.807 74.6154 223.465 72.8643C223.173 71.1619 223.319 71.1619 223.368 69.3622C223.368 68.3407 223.221 66.0059 223.368 64.9844C223.465 64.0116 223.465 63.4766 223.904 62.6497C224.294 61.8228 224.343 61.9687 224.392 61.0446C224.392 60.3149 224.002 59.488 224.051 58.7098C224.051 54.2348 224.294 49.6139 223.904 45.1389C223.807 44.0688 223.661 42.9015 223.904 41.8313L223.173 42.2205L222.49 41.5882C223.173 41.1017 223.417 40.1775 223.807 39.4965C224.294 38.7183 224.635 38.5724 224.538 37.4536C224.392 35.508 224.294 33.5624 224.196 31.5681C224.196 30.2548 223.758 28.601 224.002 27.239L225.415 26.5581L223.417 25.3907C222.88 23.4936 222.734 21.9371 221.271 20.332C220.199 19.1646 218.493 18.1918 217.762 16.7811L217.518 16.1975C204.259 9.48501 189.975 4.57226 174.864 2.09157V3.11303C175.156 5.49641 176.131 7.15022 175.936 9.72817C175.887 11.1388 175.351 12.6953 175.253 14.3491C175.253 16.2947 175.253 18.289 175.253 20.2833C173.352 21.0616 173.693 18.289 173.011 16.5866C172.036 13.8627 171.109 14.0086 171.646 11.0415C171.987 9.24177 172.621 8.26895 172.815 6.08015L172.914 5.05867C172.914 3.98857 172.914 2.7239 173.157 1.79972C165.893 0.632331 158.435 0.0486409 150.83 0C143.079 0 135.474 0.583691 128.016 1.70244C129.234 1.99428 130.405 2.48069 130.99 2.91846L131.818 4.03721C132.403 4.76684 132.696 5.30191 133.476 5.73966L135.328 6.51789C136.108 7.3448 135.914 10.5551 135.962 11.6252C136.011 13.0845 136.547 14.6409 136.449 16.1002C136.401 16.8298 136.206 17.4621 135.718 18.0945L135.182 19.2132L134.548 20.1374C134.353 20.7697 134.548 21.6939 134.451 22.3262C134.158 24.2719 133.964 26.8985 133.768 28.7469C133.622 30.8871 134.109 33.1732 133.817 35.2162C133.671 36.189 133.476 36.6267 133.33 37.5509C133.183 38.767 133.037 39.1074 133.086 40.2748C133.134 41.4908 133.476 43.4851 133.037 45.0903L133.427 45.2362C133.427 45.2362 133.768 48.0087 133.817 48.787C134.061 51.1704 131.965 52.6783 130.405 54.0889C129.43 54.9644 129.527 55.694 128.162 55.5481C127.187 55.4022 126.212 55.2076 125.237 55.0617C123.434 54.8671 121.387 55.0617 120.168 53.6997C118.12 51.4136 113.928 52.4351 111.441 52.4351C110.076 52.4351 109.589 51.8514 108.419 52.046C107.006 52.2891 107.542 52.6783 106.518 52.6296L107.201 52.3378L106.128 52.581H106.518C105.494 52.8729 103.739 53.0188 103.836 53.0188C103.008 53.0674 102.57 52.9215 101.692 53.0188C101.058 53.0188 100.814 53.0188 100.327 53.1161L98.8161 53.3593C97.1582 53.5052 96.8662 54.3807 95.5984 55.2076C94.9163 55.694 93.7949 56.1318 92.9664 55.9373L91.9914 55.5968C91.2111 55.4022 90.4308 55.5968 89.6996 55.7427C88.4809 55.9373 87.6523 56.1804 86.58 55.5481C85.41 54.9644 84.4351 54.2348 83.1675 53.6997C82.1926 53.3593 81.1201 53.3106 80.8276 52.2891L80.7301 51.1704L80.4376 49.7599L80.9251 48.787L81.3639 47.9115C81.9001 46.5982 81.5588 46.2577 81.5101 44.993C81.5101 44.312 81.4613 44.0202 81.4613 42.8041C81.4613 41.3936 81.5588 40.9072 81.4613 39.4965L81.2664 38.5724C81.0714 37.8427 81.1689 36.9672 81.1689 36.1403C81.1689 34.8757 82.1438 33.6596 82.0951 32.4922C82.0951 31.6653 81.0226 31.2762 80.7301 30.5953C80.3889 29.7683 80.5839 28.8441 80.4864 27.92C80.3401 27.0445 80.1939 26.2176 80.1452 25.2933C80.1452 23.299 80.0477 23.3964 79.9989 21.4507C79.9989 20.8184 80.1939 20.332 80.1939 19.6996C80.0964 19.0673 80.1452 18.8241 79.9989 18.1918C79.9989 17.754 80.6814 18.3864 80.7301 17.4135L80.6326 16.8785C72.6379 21.0616 64.9844 25.8771 57.9159 31.3735L54.406 35.508L57.8184 38.4265L56.8922 41.5395C54.7473 39.8857 51.0424 47.9601 51.0424 47.9601L47.435 47.1332L46.0213 44.2147C45.7776 43.1446 46.0213 42.0746 46.3626 41.2477C24.8645 61.9201 9.36252 89.0136 3.12277 119.511C6.19391 119.608 9.07003 119.073 12.1412 119.414C15.0661 119.754 17.8935 119.171 20.8184 119.171C23.4508 119.171 25.547 118.733 27.9357 118.392C29.0082 118.246 41.1465 119.365 42.3164 117.858C42.4626 117.42 43.5839 117.274 44.3152 117.079C45.0464 116.884 45.7288 116.933 46.4601 116.884C47.9712 116.836 49.6774 116.884 51.2373 116.739C52.8461 116.593 54.3085 116.155 55.9172 116.058C58.3059 115.863 59.1346 115.912 61.4746 115.377L62.742 116.252C63.8632 114.89 64.4482 113.966 64.6919 112.02C64.9357 110.561 65.5206 109.005 65.6669 107.546C65.8131 105.989 65.8619 104.773 65.8131 103.313C65.7156 101.854 65.8131 102.73 65.6181 100.833C65.3744 99.7142 65.5206 99.1304 65.5206 98.4494C65.5206 97.4279 65.4231 95.434 65.3256 94.5586C65.3256 94.2663 64.0094 93.9748 62.8395 93.5372C62.0108 93.2448 61.0846 93.1477 59.9146 93.0986C55.8685 92.8562 52.6024 94.8501 48.41 94.1691C47.3375 93.9748 45.8751 93.4881 44.6076 93.5372C43.8764 93.5372 43.1451 93.6825 42.4139 93.7796L40.4152 94.5096C39.1965 94.6068 39.0015 93.7315 38.1241 92.9533C37.1491 92.1752 36.5154 92.2233 35.1992 92.2233L33.2492 94.8501C32.1768 95.5311 30.7631 95.5801 29.4469 95.8716C28.2769 96.0659 27.6432 95.3849 26.4244 95.3368C25.3032 95.1906 24.1333 95.4821 23.2071 95.0444C22.3784 94.6558 21.8421 93.8286 21.1597 93.342C20.4285 92.8562 19.5997 92.71 18.8198 92.1752C17.9422 91.4942 15.6998 89.3541 16.236 88.0402C16.4798 87.3111 18.6735 86.2406 19.356 86.2406C20.2822 86.2406 21.5496 86.9216 22.5246 86.9706C24.8158 87.1159 27.9357 87.4564 30.0319 86.8726C33.0542 85.9973 36.1254 85.9973 39.1965 85.6086C41.3414 85.3653 43.4864 85.0248 45.6313 84.8786C46.9475 84.7324 48.0687 84.49 49.3849 84.2466C51.6762 83.76 53.9673 83.6138 56.2585 83.1761C58.3546 82.7875 60.4021 82.0085 62.5958 82.0575C63.3757 82.0575 64.0582 82.2518 64.6919 81.766C65.3256 81.3765 65.1794 80.5496 66.0081 80.2091C66.9343 79.9173 68.9818 79.7714 69.7618 79.9173C71.0292 80.1605 72.3942 80.7442 73.6616 81.1333C74.9778 81.5224 76.099 81.8142 76.8303 82.8356C77.6103 84.0033 78.439 85.1701 79.0727 86.4349C79.5114 87.3111 80.3889 87.8941 80.7789 88.7702C81.1689 89.6455 80.8764 91.3962 80.4864 92.1752C80.1452 92.8072 79.7552 93.0015 79.5602 93.7315V95.5801C79.5602 97.5741 79.7552 99.5199 79.4139 101.32C78.7315 104.432 78.0003 108.08 76.7816 110.999C76.4402 111.826 76.1965 112.556 76.0015 113.431C75.7578 114.404 74.5878 114.55 73.8566 115.279C74.1491 115.863 78.1465 114.987 79.0727 114.987C81.1689 114.987 83.8012 114.987 85.02 114.744C87.3113 114.404 89.3585 113.577 91.7477 113.285C92.9173 113.188 94.136 112.944 95.3547 112.847C97.9867 112.701 99.1572 112.313 100.571 112.313C101.497 112.313 102.667 112.798 103.642 113.237C103.105 112.458 102.667 111.777 102.57 111.632C102.326 111.048 102.179 110.658 102.179 109.977C102.179 108.567 101.741 107.302 101.741 105.649C101.741 104.141 102.472 103.313 102.813 101.951C103.154 100.395 102.813 98.7899 103.105 97.1846C103.398 95.7254 103.836 94.5096 104.178 93.0505C104.47 91.98 104.422 90.9585 104.763 89.8889C105.543 87.5536 105.202 85.3653 104.763 83.079L103.691 78.1662C103.593 77.4852 103.788 78.2148 103.349 77.5825L102.423 76.8042C102.082 76.1719 101.985 75.9773 101.692 75.4423L100.766 74.0804L101.643 71.9888C101.107 71.5024 100.376 71.8428 99.1572 71.7942C97.6456 71.9888 96.4269 72.2807 94.8181 72.2807C93.5512 72.2807 91.3084 72.4752 90.0415 72.4752C85.6538 72.6697 82.1926 72.913 77.7078 73.1561C74.6366 73.3507 71.6142 73.8371 68.6406 74.5181C67.6168 74.7614 66.5443 75.1991 65.4231 75.0532C64.2044 74.81 64.0095 74.81 62.742 75.0532C59.8171 75.4423 55.0398 75.3937 52.4561 76.6097C51.4812 77.0475 50.9936 77.1934 49.6774 76.9988C48.3612 76.7556 46.655 76.3178 45.3389 76.1719C44.3639 76.0746 42.9501 76.4151 42.0727 76.2692C41.3902 76.0747 41.3902 75.7828 40.854 75.2478C40.1715 74.4695 39.3428 74.0804 38.6603 73.3021C37.9778 72.5725 37.7341 71.5997 37.0516 70.9187C36.3692 70.2864 35.5892 70.1404 35.2967 69.1676L34.8092 66.7842L34.9067 66.5897C35.3455 65.86 36.5154 65.7628 37.4416 65.6168C38.3678 65.5195 38.9528 66.1518 39.8303 66.3951C40.8052 66.6869 41.7802 66.0059 42.7551 66.2492C43.5839 66.4923 44.1202 66.3951 44.9976 66.4923C46.6063 66.6382 48.215 66.7356 49.8724 66.7356C51.5298 66.7356 54.5523 66.4437 56.2097 66.2005C58.0621 66.0546 61.7183 66.3951 63.6195 66.2978C65.4069 66.2653 67.1456 66.2329 68.8356 66.2005C71.078 66.1518 73.2716 65.6654 75.514 65.6654C82.2413 65.6654 88.6764 65.5682 94.8672 63.4766C95.9395 63.0875 97.1099 63.3306 98.1822 63.3793L99.8393 63.5739L101.253 62.9902H102.861C104.276 63.0388 105.251 63.0388 106.713 63.0388C107.834 63.0388 108.614 62.5524 109.541 62.5524C110.564 62.5524 111.637 63.5252 112.66 63.3307L113.831 62.4065C114.464 62.1633 115.098 62.1147 115.731 61.7742C116.706 61.4337 117.243 61.2391 118.462 61.2391C120.704 61.0932 122.946 61.2391 125.237 61.2391C127.236 61.2391 129.137 60.6554 131.233 60.8986C132.94 61.1418 133.865 60.2177 135.523 59.9258C136.937 59.7313 138.205 58.6125 139.57 58.807C141.08 59.0016 143.079 59.4394 144.591 59.5367C146.345 59.7313 146.979 60.4608 148.101 61.1418C149.27 61.7742 148.978 63.6711 150.342 63.5739C151.074 63.5252 151.416 62.6983 152.244 62.8442L152.682 63.0388C153.755 61.1905 154.34 59.0989 155.706 57.3965C156.729 56.1318 158.288 55.6454 159.459 54.7212C160.726 53.6511 162.188 51.7541 163.018 50.2948C164.187 48.3492 164.869 46.9872 166.478 45.4308C167.161 44.7984 167.746 44.0202 168.282 43.2419C169.159 42.0746 169.696 40.7613 170.475 39.5452C170.866 38.9129 171.597 38.3291 171.597 37.405C171.89 36.724 172.084 36.2376 172.426 35.6053L173.693 34.0001C177.105 30.0115 177.983 26.8985 180.03 21.9857C180.713 20.2347 180.421 19.2132 180.177 17.4135C180.03 16.3434 180.177 14.495 180.567 13.4736C180.908 12.744 182.127 12.4521 182.711 12.063L186.319 15.0788C187.196 16.3434 188.708 16.9271 190.122 17.8999C190.316 18.7268 190.999 19.5537 191.048 20.4779C191.145 21.548 190.463 21.7912 190.316 22.7154C190.122 23.6395 191.097 24.4179 191.584 25.0988C192.266 26.023 192.364 26.6066 192.754 27.7254C193.534 29.9143 195.435 32.0545 196.751 34.0488C198.019 35.9944 199.335 38.0373 201.138 39.6424L202.357 40.6639L202.601 41.8313C203.088 42.6582 204.112 43.0474 204.746 43.7283L205.916 45.1389C206.55 45.9172 206.403 45.7226 206.891 46.4036C208.5 48.3492 210.108 49.2734 211.668 50.684C212.449 51.4136 214.057 52.6296 214.69 54.3321C215.031 55.4022 216.543 55.5481 216.933 55.6453C218.249 56.375 218.98 57.2019 219.127 59.488C217.615 61.385 214.739 64.6439 212.838 65.7141C211.619 66.3951 210.499 66.3464 208.987 66.4437C207.817 66.4437 207.719 65.179 206.55 65.179C205.038 65.2277 204.502 65.0818 203.186 64.6926C202.503 64.5467 202.162 64.5467 201.626 64.109L200.261 62.4065C199.628 61.6769 198.994 61.0446 198.311 60.4122C197.385 59.488 196.995 59.2935 197.19 58.0288C197.288 57.2506 197.482 56.375 197.19 55.5968C196.897 54.7212 196.41 53.9916 196.166 53.0188C195.873 51.9487 195.728 50.5868 194.948 49.7112C194.216 48.787 193.485 48.9815 192.559 48.3979C191.097 47.4251 190.56 45.0903 190.024 43.5338C189.147 41.1503 188.903 38.621 187.538 36.4808C186.904 35.5566 186.368 34.5838 185.198 34.0974C184.027 33.6596 183.686 34.0001 182.809 35.1188C182.078 36.043 181.542 37.3563 180.908 38.3778C180.128 39.6911 179.495 41.1017 178.665 42.3664C176.911 44.993 175.887 48.5925 173.498 50.7813L172.084 52.4351L171.061 53.797C170.086 55.9858 169.452 58.418 167.99 60.2663C166.771 61.8228 166.332 62.2119 165.747 63.2821C165.162 64.3035 164.382 66.0546 163.31 66.7356L162.628 66.9787L163.7 68.0975L165.211 69.654L165.699 70.3836L165.26 71.9888C163.749 72.6697 162.481 72.6697 161.262 73.983C160.58 74.7127 160.044 75.1504 158.971 75.2478C158.191 75.2964 157.509 75.1018 156.729 75.0532C154.876 74.8586 153.17 75.2478 151.317 75.2478C150.099 75.1991 149.075 74.4695 147.857 74.0317C145.078 73.0102 142.104 72.8643 139.179 72.6212C136.206 72.4266 133.183 71.9402 130.209 72.3292L130.697 73.0102C131.428 73.8371 132.355 74.3235 133.476 74.6154C133.476 75.2964 133.378 76.0747 133.72 76.6097C132.745 76.5124 132.208 76.8529 131.477 76.8529C130.405 76.8529 130.064 76.2692 129.186 75.9773C128.455 75.7342 127.577 76.0747 126.846 75.8314C125.578 75.4909 125.822 74.1776 124.702 73.7885C125.774 73.1076 127.528 73.6426 128.552 73.0102L128.455 72.3292L127.675 72.1347C127.09 71.9888 126.408 71.6969 125.774 71.5023C124.165 71.1619 122.312 71.7456 120.606 71.551C119.29 71.3564 113.782 70.5782 114.903 71.6969C115.829 72.232 116.95 73.7399 116.657 75.1018C116.219 77.0961 115.975 76.026 116.268 78.2148C116.463 79.674 116.072 80.355 115.537 81.4738L112.757 80.9388L112.319 81.766L110.808 82.447L111.051 84.2466L112.319 85.4134L113.587 84.441L114.123 84.0515L114.903 84.1495V85.8029C114.854 87.1159 114.806 88.3326 115.244 89.4994L115.926 91.1047C116.316 92.8072 115.926 94.5586 115.926 96.3093C115.926 97.0874 116.122 97.7202 115.926 98.4494C115.829 99.1794 115.341 99.568 115.341 100.395C115.341 102.779 116.853 105.891 115.098 108.031C114.22 109.005 113.732 110.074 112.953 111.291C112.319 112.117 112.612 111.972 111.929 112.701C111.149 113.577 109.979 114.744 109.101 115.863C110.466 116.544 111.832 117.177 113.489 117.42C115.341 117.662 115.829 117.468 117.145 118.976C117.876 119.852 118.705 120.386 119.144 121.457V122.965L118.12 124.424C116.657 125.64 116.901 126.953 115.049 127.05C113.635 127.148 112.27 127.245 111.003 127.829C109.394 128.558 108.956 128.51 107.151 129.629C106.567 130.066 105.348 129.823 104.714 129.774C103.398 129.774 102.277 129.288 101.107 128.461C99.6929 127.537 98.4742 127.342 97.0608 126.564C95.8912 125.883 94.8672 125.494 93.4538 125.008C90.9183 124.084 87.6032 124.521 84.9225 124.278C81.6563 123.937 78.4877 123.354 75.2215 123.548L74.0028 123.646C73.2716 123.888 72.7841 124.181 72.1504 124.472C71.273 124.862 70.6392 124.91 69.6643 124.862C68.6406 124.862 67.763 125.056 66.9343 125.105C66.1056 125.105 66.2518 124.181 64.4969 124.181L60.8408 124.375C60.5971 125.202 62.8883 125.786 63.0345 125.931L63.132 127.489C63.0345 128.364 63.0832 128.948 63.132 129.823C63.132 130.455 63.2295 130.991 63.327 132.207C63.3757 133.666 62.9857 134.687 63.2295 135.952C63.4245 137.022 63.6195 138.043 63.4732 139.308C63.4245 140.427 63.4732 142.372 63.0345 143.443C62.5958 144.561 62.4495 145.193 61.3283 146.021L60.7433 146.507H61.2796C63.1807 146.215 64.3019 146.167 66.0569 145.777C66.7881 145.631 67.7143 145.486 68.3968 145.388C69.1281 145.388 70.0543 144.221 72.1992 144.318C73.5641 144.512 74.4416 145.096 75.9528 145.047C77.2203 144.95 77.6103 145.193 78.8777 145.631C82.7288 147.188 81.4613 145.631 83.1675 147.48C85.215 149.669 87.1158 151.809 86.4336 153.9C86.0925 154.971 84.3863 157.499 84.3863 158.667C84.3863 159.932 84.1912 160.175 84.045 161.634C83.85 163.094 83.3625 164.455 83.8012 166.255C84.045 167.374 84.1912 168.298 84.0937 169.369C83.85 171.897 84.24 172.53 84.0937 173.989C83.8987 175.983 83.8012 177.054 83.5088 178.513C83.1675 180.264 82.875 181.723 83.07 182.988C83.1675 183.912 83.8012 185.906 83.2163 186.733L81.5101 187.803L79.6577 189.116C78.5365 189.992 77.8053 191.062 76.6841 191.84C75.6115 192.57 74.3441 192.862 73.2229 193.64C71.8579 194.564 72.2479 194.808 70.688 193.981C69.908 191.354 68.6893 189.311 69.1768 186.49C69.3718 185.225 69.2743 185.03 69.908 184.106C70.7367 182.793 70.5417 179.972 70.883 178.27L70.9805 176.616H71.8579C72.5404 176.81 73.0279 176.47 73.6616 177.005L74.8803 178.221L75.3678 177.686L74.4416 176.129L73.8566 174.233C73.5154 173.843 72.1017 173.843 71.1267 173.843C71.0292 171.314 72.0529 170.487 72.1992 167.423C72.1992 166.547 72.2479 166.206 72.2479 165.283C72.1992 162.899 71.3705 160.223 71.5167 157.889L70.2493 157.646C68.9818 155.749 67.3731 154.387 65.0819 153.365C64.3019 155.359 61.5233 154.922 59.5246 155.456C58.2571 155.797 57.0872 155.456 55.7222 155.311C54.4548 155.165 53.0898 155.311 51.7736 155.311C50.8474 155.311 49.6287 155.408 48.7025 155.603C47.7275 155.797 46.9475 156.478 45.9726 156.673C45.2414 156.916 44.1689 156.673 43.3889 156.527C38.2703 155.992 33.5417 157.695 28.5207 157.743C26.5219 157.743 24.4745 157.743 22.4759 157.938C21.7446 157.938 20.6234 158.18 19.941 158.521L18.6735 159.202H17.3085L16.1386 159.105L14.4811 158.376C13.7499 157.986 12.8237 157.792 12.19 157.257L10.0451 156.43L9.7525 156.333L8.58258 154.533L7.94886 154.046L8.04635 152.49L8.24134 150.788C8.97253 150.69 8.82629 150.788 9.41127 150.495L11.02 149.766C12.3362 149.523 13.7499 150.107 15.0661 149.911C17.4547 149.523 20.0872 149.766 22.6221 149.669C25.157 149.571 27.6432 149.814 30.1294 149.911C31.7868 150.107 33.3955 150.35 35.1992 149.96C36.0279 149.863 36.5154 148.988 37.2954 148.842C38.2703 148.745 39.489 148.745 40.464 148.696C42.0727 148.696 43.4377 148.501 44.9489 148.307C46.655 148.064 48.2637 148.161 50.0186 148.161C50.7011 148.161 51.1886 148.112 51.7248 148.015C51.3348 147.334 51.7249 146.848 51.4812 146.021C51.1886 145.242 51.3348 144.756 50.8474 144.026C50.2624 143.102 49.4337 142.713 49.4824 141.448C50.8474 135.562 50.7011 135.855 50.7986 134.103C50.9449 132.741 50.6036 131.185 50.7011 129.823C50.7011 128.899 50.7011 127.731 50.5061 126.808C50.1649 125.688 49.2874 125.25 48.7025 125.056L47.0938 125.25C45.5338 125.494 44.1202 125.446 42.5601 125.446C40.854 125.446 38.6116 126.515 36.9541 126.224C36.6617 125.348 34.5654 125.056 33.6879 124.959C32.4205 124.91 32.2743 125.688 31.2993 126.418C30.7143 126.856 30.3243 126.759 29.5444 127.05C28.8619 127.293 27.7407 126.905 27.0095 127.002C25.6932 127.148 24.572 127.44 23.2558 127.683C18.966 128.461 14.4324 128.51 10.1426 128.267L8.77754 128.023L7.9976 127.245C7.26638 127.196 6.4864 128.218 5.75518 128.412C4.48772 128.753 3.17152 128.996 1.85531 129.142C0.636599 135.66 0.0028705 142.129 0.0028705 148.745C-0.0946263 164.602 2.29405 179.826 6.77889 194.224L10.7275 191.743L18.6248 196.899C18.6248 196.899 16.7235 198.407 17.601 203.222L18.2348 208.962H14.1886C14.1886 208.962 12.4337 205.849 10.0938 203.612C19.4047 227.591 34.7117 248.556 54.211 264.754L55.381 264.656C56.1122 264.656 57.0872 264.754 57.7696 264.656L59.4758 263.926C60.8408 263.683 63.912 264.121 64.6432 262.613L64.4482 261.3V259.062C63.3757 254.588 62.3033 254.83 62.547 253.81C62.937 252.35 63.522 251.669 64.0582 251.28C63.327 251.134 62.352 251.134 61.6696 250.939C60.4021 250.647 59.1833 250.939 57.9646 250.647C56.9409 250.356 55.8685 249.675 54.9423 249.528H53.1873C52.4074 249.675 52.6024 250.015 51.6274 249.675L50.1649 248.556C49.5799 248.118 48.9949 247.778 48.605 247.048C48.2637 246.464 48.1662 246.27 47.5813 245.345C47.1425 244.762 46.8988 244.373 46.4601 243.692C46.1188 243.108 45.6313 242.427 45.5338 241.795C45.6313 242.573 43.5839 236.785 44.3639 237.806C43.3402 236.347 42.9989 235.958 43.4377 234.158C44.0227 231.775 44.0227 230.072 45.3389 227.835C46.5088 225.938 47.5813 223.555 49.8237 222.63L52.1149 221.998L52.2611 220.538L53.4311 219.906C54.601 219.469 55.5272 218.641 56.6972 218.155C58.9396 217.085 61.4746 216.988 63.8632 216.355C66.2031 215.674 67.7143 215.042 70.2493 215.139C71.9067 215.139 72.1017 216.161 73.3204 216.939C74.3928 217.669 75.5628 217.475 76.7816 217.717C78.439 218.155 80.0964 218.836 81.7051 219.371C82.6313 219.615 83.1188 220.198 83.9475 220.587C84.825 220.977 85.1663 221.463 85.995 222.095C86.9211 222.825 87.7987 223.408 88.2371 224.236C88.871 225.548 89.4558 226.764 89.9433 228.175V230.072C89.9924 230.947 89.9924 231.386 89.9433 232.893C90.187 234.255 90.3335 234.596 90.187 235.812C90.0897 237.028 89.554 236.785 88.7737 237.563C87.7496 238.633 87.6032 240.336 86.7747 241.698C86.0925 243.011 84.7763 245.492 83.3138 246.27C82.4851 246.659 81.7538 247 80.9251 247.485C79.9989 247.972 79.1215 248.556 78.1952 248.945C77.1228 249.528 75.9528 249.918 75.0266 250.696L73.9541 251.328L73.4666 251.669L71.9554 252.399V253.371L73.3691 254.782C74.5878 257.457 73.3204 259.792 74.0028 260.668C74.7341 261.543 74.2466 264.073 74.7341 264.073C75.4653 263.829 74.2466 263.099 75.124 262.759C76.489 262.224 81.0226 262.03 82.3876 261.689C85.9462 260.668 89.1639 259.987 92.6244 259.354C93.6976 259.111 94.7699 258.722 95.9885 258.965C97.3046 259.159 98.4259 260.035 99.6929 260.23C100.522 260.327 101.253 260.23 101.985 260.181L101.887 259.792C100.717 257.603 99.6446 257.068 99.1081 255.317C98.5724 253.712 99.3518 252.301 99.6446 250.745C100.766 250.258 101.887 249.626 102.96 249.188C103.105 247.729 103.105 245.978 103.105 244.519C104.178 244.519 104.91 244.664 106.031 244.664C105.787 246.026 104.811 247.388 104.568 248.799C104.227 250.599 104.422 252.593 104.324 254.442C104.227 255.998 103.544 257.652 103.788 259.111L103.935 259.938C104.91 259.84 105.494 259.84 106.372 260.521C107.006 261.008 107.103 261.202 107.785 261.786C108.614 262.516 109.297 263.392 110.175 264.219C111.295 265.239 110.759 264.607 111.929 264.461C112.612 264.413 112.807 264.461 113.489 264.705C112.757 262.662 111.588 262.954 109.345 262.03C109.492 261.008 108.712 260.181 108.712 259.159C108.712 258.138 109.053 258.187 109.394 257.409C110.32 255.269 110.175 252.107 109.784 249.821C109.394 246.903 109.443 243.983 110.223 241.162C110.613 239.849 110.808 239.314 110.516 237.854C110.272 236.639 109.979 235.52 110.272 234.401C110.71 232.309 110.418 230.218 110.418 228.078C110.418 224.77 110.418 221.414 110.466 218.107C110.466 215.723 110.662 213.34 110.906 210.956C111.051 209.643 111.051 209.059 110.516 207.6C109.833 205.557 110.369 205.508 111.978 204.293C110.223 203.174 110.906 201.86 110.175 200.256C109.589 198.942 109.297 197.483 109.297 196.023C109.297 194.321 108.712 192.813 108.712 191.354C108.712 190.576 108.809 190.77 108.419 190.09C108.176 189.457 105.835 185.809 103.252 184.544C102.57 184.301 102.813 183.961 102.764 183.425V182.939L101.351 184.399C100.327 185.03 99.0598 187.122 98.4259 187.998L96.9144 189.895C96.0368 190.576 94.9645 191.11 94.0386 191.694C91.7959 193.105 90.1388 194.808 87.4577 195.342C86.58 195.537 85.6538 194.711 84.8738 194.564C83.9962 194.37 83.1188 195.293 82.5338 194.613L81.8513 192.327C81.8513 192.327 82.6313 191.354 83.265 190.576C83.5088 190.138 85.02 188.435 85.8 187.608C86.2872 186.685 86.9702 185.323 87.6032 184.447C88.6273 182.939 89.6513 181.966 90.2852 181.188C91.6986 179.291 93.0146 178.561 94.5261 177.005C95.3056 176.178 96.3296 175.692 96.7198 174.621C97.2555 173.211 97.5974 172.919 98.5233 171.8C101.595 167.958 105.494 163.628 106.031 162.413C106.518 161.44 107.25 160.953 107.785 160.467L108.956 158.91C109.297 158.229 109.833 157.597 110.223 157.014C110.906 155.846 111.637 154.727 112.66 153.803C113.538 152.928 114.318 151.954 114.854 150.885L115.439 149.328L115.585 147.577C115.781 146.702 115.975 145.826 116.122 144.756C116.268 144.026 116.316 143.734 116.024 142.226C115.878 141.448 115.829 141.448 115.439 140.427C115.244 139.843 116.316 139.697 115.439 139.357C114.61 138.967 114.22 139.989 113.197 139.892C112.173 139.843 111.149 139.746 110.125 139.697C109.345 139.697 107.151 139.114 107.103 139.114C106.177 139.114 104.373 139.114 102.374 139.162C100.668 139.211 99.2545 138.967 97.6947 140.038L96.5734 139.502C96.0368 138.676 95.2082 137.022 94.4288 136.341L93.5994 135.562L92.8682 135.222L92.7708 134.881L92.2351 131.672L92.9664 130.358C93.8431 129.872 95.8912 131.234 96.768 131.331C98.0849 131.526 99.9366 131.769 101.204 131.672C101.887 131.623 102.667 131.331 103.203 131.331L103.983 131.623L104.811 131.963C105.738 132.012 106.128 131.185 106.713 130.845C107.395 130.455 108.37 130.65 109.248 130.504C110.906 130.115 112.563 130.213 114.269 130.164C115.098 130.164 115.975 130.553 116.853 130.553C117.828 130.553 117.632 129.969 118.413 129.774C119.338 129.385 121.143 129.774 122.215 129.774C123.824 129.823 125.481 130.017 127.09 129.58C128.747 129.142 130.258 128.121 131.965 127.586C133.086 127.196 134.012 126.272 135.182 126.369C136.449 126.467 137.571 125.931 138.692 125.688C140.252 125.397 140.935 126.369 142.104 126.759C142.592 127.05 146.394 128.267 144.736 127.731C145.419 127.974 145.614 128.704 146.297 128.704C147.467 128.851 146.979 128.607 148.198 128.655L150.294 129.434L150.586 130.845L150.733 131.963C150.733 132.644 150.635 132.401 150.441 132.985C150.05 133.812 149.514 134.638 149.367 135.562C149.124 136.536 148.247 137.557 147.467 138.286L146.492 139.551C145.955 140.086 144.639 139.843 143.908 139.697C142.104 139.454 139.57 139.697 137.765 139.795L136.206 140.135L134.987 140.476C134.256 140.232 133.427 140.329 132.599 140.183C131.721 139.989 130.99 139.697 130.064 139.697L127.918 139.405C127.967 138.14 126.115 138.724 125.433 138.967C124.458 139.308 123.434 139.114 122.459 139.405L121.971 139.211L123.19 139.989C124.116 140.622 124.36 141.838 124.945 142.713C125.53 143.637 126.602 144.269 126.749 145.437C126.846 146.264 125.725 148.452 125.822 148.988L126.7 150.009C127.383 150.592 127.334 150.933 127.675 151.857C128.065 152.879 128.065 152.928 128.358 153.803C128.65 154.533 128.699 155.068 129.089 155.652C129.625 156.527 130.064 156.965 130.453 157.889C131.136 159.689 132.111 161.002 133.378 162.364C135.084 164.164 135.67 166.012 137.327 167.909C137.863 168.492 138.546 170.195 138.009 171.119C137.863 172.384 138.789 170.487 139.813 171.46L141.08 172.627L142.445 173.503L143.128 174.135C143.811 174.573 144.444 175.156 144.98 175.837C145.517 176.47 145.955 177.248 146.492 177.88C146.979 178.513 146.882 178.27 147.564 178.513C148.442 178.756 148.685 179.291 149.367 179.778C150.148 180.313 150.684 180.41 150.928 181.528C151.025 182.356 151.317 182.356 150.928 182.842L149.904 184.399C149.514 185.225 148.003 185.565 147.418 186.198C146.151 187.268 143.957 189.019 142.348 189.116C141.568 189.116 141.178 189.019 140.105 188.679C139.13 188.435 138.643 188.435 137.961 187.803C137.083 186.976 136.449 187.22 135.426 186.83C133.476 186.149 132.989 183.718 131.916 182.209C131.428 181.577 130.697 181.188 130.551 180.459C130.405 179.729 131.283 179.097 131.039 178.172C130.697 177.248 130.161 176.567 129.722 175.595L128.259 174.524L127.626 174.087C126.846 173.406 126.31 171.849 126.018 170.779C125.871 169.757 124.896 168.736 124.555 167.568C124.262 167.179 124.165 166.401 123.872 165.087C123.531 163.434 122.897 160.904 123.093 159.3C123.239 158.132 122.02 158.861 121.874 158.132L121.24 156.818C119.972 155.895 117.389 161.391 116.901 162.218C116.024 163.628 114.756 164.309 113.976 165.768C113.099 167.52 112.026 168.833 110.808 170.244C110.125 170.973 109.687 171.897 109.053 172.627C108.37 173.356 108.225 173.406 107.639 174.475C107.054 175.643 106.031 176.178 105.348 177.297C104.568 178.464 104.763 178.902 104.276 180.264L104.08 180.653C104.568 180.215 105.153 179.923 106.031 179.778C107.493 179.632 107.542 179.875 108.76 180.361C109.492 180.701 110.418 181.091 111.344 181.334C113.489 181.918 115.341 183.28 117.535 182.939C119.046 182.744 119.582 182.89 120.753 183.718L121.922 184.884C123.58 186.441 121.874 186.246 123.531 187.511C123.921 190.284 123.287 191.791 123.141 193.153C123.093 194.078 122.8 194.273 122.8 195.196C122.653 197.726 122.8 200.207 122.8 202.736C122.8 205.071 122.849 207.211 123.531 209.4C124.214 211.589 123.093 213.972 122.752 216.161C122.556 217.231 122.752 218.204 122.653 219.225C122.556 220.49 122.166 221.658 122.41 222.874C122.653 224.089 123.483 225.062 123.97 226.229C124.799 226.327 126.018 226.57 126.895 226.424L128.552 225.5C130.161 224.965 131.087 223.555 132.696 223.457C133.964 223.311 135.426 223.214 136.645 223.165C138.155 223.117 138.985 224.138 140.398 224.43C141.714 224.722 142.299 223.895 143.713 224.624C145.224 225.354 147.272 225.646 148.636 226.473C149.611 227.105 149.514 228.224 149.514 229.537C149.66 230.753 150.684 232.309 150.294 233.234C149.709 234.839 147.467 237.125 145.517 236.639C144.785 236.444 144.639 236.444 143.86 236.25C142.786 235.958 141.47 236.007 140.398 235.714C139.179 235.472 137.961 235.033 136.693 234.985L135.182 235.277C134.499 235.423 133.671 235.082 132.94 235.277C132.062 235.472 131.184 235.277 130.209 235.277C128.016 235.423 126.359 234.596 124.311 234.352L123.872 235.617L122.459 234.985L120.509 234.596L121.678 232.164L118.803 231.969C118.413 232.845 118.12 232.748 117.243 232.99C116.512 233.137 116.414 233.915 117.047 234.499L116.901 235.91C116.268 236.201 115.39 236.395 114.707 236.055C114.707 236.931 115.244 238.293 116.024 238.876L116.609 238.293C117.145 237.806 117.194 237.709 118.022 237.514L117.34 236.055C118.997 235.958 121.143 235.374 122.605 236.152C122.605 237.271 123.19 238.682 122.995 239.655C122.703 240.919 121.288 241.6 120.996 242.865C120.899 244.081 120.704 244.276 120.85 244.664C121.533 246.804 121.045 249.188 120.899 251.377C120.753 252.69 121.288 255.754 120.216 256.776C121.337 257.263 121.63 257.068 121.776 258.284C121.922 259.792 121.63 261.349 121.484 262.808C121.24 265.191 121.971 267.623 121.971 269.958C121.971 271.563 121.971 273.12 121.971 274.725C121.971 275.844 121.484 276.622 121.435 277.74C121.387 279.346 121.532 280.999 121.678 282.605C121.728 284.064 122.264 285.669 122.166 287.128C122.069 288.199 121.533 289.803 121.094 290.825C120.801 291.555 120.119 291.895 119.826 292.479C119.241 293.5 119.534 294.425 119.193 295.348C116.463 294.765 113.684 294.132 111.003 293.403L110.906 293.111C110.759 291.846 110.906 292.576 110.564 291.311L110.71 288.88C110.418 288.296 110.125 288.733 109.784 288.052C109.297 287.08 109.345 285.718 109.297 284.599C109.248 282.799 109.541 280.756 109.2 278.908L109.394 277.74C109.541 276.816 109.687 276.865 109.979 276.038C110.418 275.066 109.784 273.411 109.833 272.293C109.833 271.661 110.175 269.618 109.345 269.277C108.468 268.937 107.737 271.028 106.908 271.174C106.323 271.271 105.056 270.639 104.373 270.493C103.788 270.445 103.203 270.347 102.52 270.25C99.3036 269.569 96.5243 268.888 93.1119 268.937C91.6986 269.034 90.529 269.471 89.1639 269.618C88.1398 269.812 87.1648 269.618 86.0925 269.52C85.1663 269.52 83.3625 269.569 82.5338 269.325C81.6563 269.083 81.7538 268.207 81.1689 267.623C80.3889 268.061 81.1689 268.644 80.4376 269.18L77.5128 269.861C75.4653 270.736 72.0529 270.104 69.908 269.812C68.4456 269.569 67.763 269.666 66.4468 270.006C65.3744 270.347 64.2044 270.201 63.0345 270.493L62.4008 270.639C86.8238 288.247 116.755 298.802 149.173 298.996C170.427 299.143 190.609 294.765 208.938 286.934C208.792 286.301 208.89 285.426 208.792 284.016C208.694 282.313 208.792 280.611 208.89 279.005C209.036 277.303 208.5 276.913 208.549 275.017C208.646 271.952 208.646 269.909 208.841 267.915C209.036 266.359 209.182 264.9 209.524 263.538C209.962 261.446 209.377 258.527 209.182 256.484C208.938 254.344 209.231 252.301 209.084 250.209C208.938 248.313 209.182 244.908 209.328 243.011C209.328 243.011 211.863 242.378 211.083 241.698C210.693 241.357 206.891 241.698 205.185 241.552L205.038 242.524C203.966 242.524 203.429 242.67 202.65 243.254L201.479 244.324C200.504 244.567 199.628 243.595 198.701 243.4C197.823 243.254 196.507 243.595 195.581 243.789C194.898 244.032 194.314 243.886 193.826 243.983C192.607 243.983 191.925 244.86 190.707 244.762C189.732 244.616 189.098 244.373 188.026 243.595L186.076 242.281C185.198 241.503 185.246 241.162 184.857 240.238C184.564 239.46 184.661 239.606 184.223 238.974C183.686 238.293 184.613 236.931 184.661 236.104C185.685 236.007 185.977 236.104 186.855 235.763C187.83 235.423 188.074 234.693 189.244 234.645C191.097 234.548 192.9 234.888 194.704 234.985C196.215 235.033 197.482 234.548 198.896 234.352C199.773 234.352 200.359 234.012 201.041 233.818C202.26 233.526 203.527 233.671 204.746 233.72C205.331 233.72 208.597 235.082 207.33 233.137C206.94 232.456 208.597 231.143 208.549 230.364L208.109 229.634L208.256 228.905C208.305 226.667 207.768 223.846 208.5 221.658L209.475 221.463C208.549 220.733 209.231 219.469 208.451 218.496C207.817 217.669 207.33 217.96 207.232 216.745C207.232 215.917 207.427 215.091 207.232 214.312C207.134 213.534 207.037 212.95 207.037 212.075C206.891 210.178 205.916 209.351 204.794 208.184L203.284 206.627L202.211 204.924L201.382 203.514L200.7 202.493L199.628 201.618C199.822 200.888 199.773 200.693 200.017 200.304L200.651 199.282L201.578 198.115C202.406 198.358 203.722 198.456 204.551 198.407C205.965 198.358 206.696 200.06 207.963 200.693C209.328 201.422 210.108 201.52 210.791 202.784L211.424 201.909H212.74C214.155 202.055 215.812 202.687 217.08 203.222C218.883 204.001 217.859 204.243 218.493 205.654L219.224 206.725C219.761 207.989 218.883 208.476 218.786 209.74C218.103 209.74 217.908 209.74 217.128 209.984L216.787 211.005L214.3 209.935L212.302 211.053C211.961 212.075 210.937 213.924 211.083 214.361L212.205 215.869L214.349 217.766C215.373 218.69 215.081 216.355 215.275 215.772C215.568 214.896 216.592 213.826 217.274 213.194C218.396 212.221 218.2 212.805 218.786 214.021C219.029 214.702 219.614 214.799 219.565 215.82C219.468 217.134 218.639 218.544 218.493 220.247H216.202C215.422 220.344 215.227 220.441 214.447 220.587L213.569 222.29C213.472 223.214 214.593 224.236 214.008 225.062C213.472 225.841 213.277 225.257 213.033 224.722C212.497 223.603 212.984 223.749 211.571 223.262L210.255 225.743C210.499 226.667 211.424 227.105 211.717 228.029C211.961 228.953 212.546 230.121 213.374 231.337C214.057 231.483 215.031 231.58 216.105 230.364L218.298 229.586L219.517 229.488C219.371 231.288 218.834 232.893 220.004 234.352C221.125 235.714 220.492 238.001 220.443 239.752L219.321 240.53V242.817C219.321 245.151 218.2 247.437 218.396 249.724C218.59 251.28 218.542 253.129 218.493 254.685C218.493 256.387 218.493 257.797 218.59 259.5C218.59 261.105 218.931 262.662 218.931 264.267C218.931 264.997 219.175 266.066 218.931 266.796C218.59 268.061 218.688 268.207 218.542 269.374C218.444 270.396 218.444 271.855 218.737 273.411C219.078 274.725 218.883 274.628 219.078 275.941C219.224 277.254 219.468 278.032 218.786 279.492C218.444 280.27 217.956 280.562 217.615 281.583C217.323 282.313 217.372 282.702 216.981 283.237C220.833 281.34 224.538 279.249 228.194 277.011C228.194 275.844 228.096 274.676 228.194 273.508C228.389 270.736 228.584 270.006 228.34 268.304L228.096 265.823C228.145 264.948 228.389 255.074 228.34 254.149C228.34 252.885 229.559 246.026 228.438 245.297C227.609 244.811 227.852 242.184 227.901 241.259C228.048 240.19 228.048 238.584 227.463 237.709C227.17 235.423 226.926 229.878 227.219 227.64C227.414 225.889 227.901 224.624 227.268 223.117C227.219 222.046 226.926 219.663 226.78 218.544C226.683 217.62 226.829 216.745 226.877 215.772L226.732 213.972V213.291L226.683 212.221L226.585 211.394L226.001 209.594L225.561 208.525L226.244 206.87L226.39 205.508C226.634 204.536 226.976 203.855 228.145 204.342V203.125L227.365 202.639L226.098 201.618C225.61 200.985 226.78 199.818 226.146 199.575C225.464 199.331 224.538 199.866 223.904 199.672C223.076 199.428 222.929 198.504 222.295 198.017L221.32 197.094C221.32 197.094 220.102 195.732 217.664 194.03C217.615 193.008 216.689 191.791 216.933 190.868L217.421 190.527L217.811 190.187L218.59 189.554L219.175 189.214L220.394 189.019L221.418 189.36L222.929 189.992L223.807 190.576L225.026 191.11C225.854 191.257 226.683 191.403 227.511 191.451C228.292 191.549 229.071 191.451 229.9 191.451C230.533 191.403 231.265 191.5 231.899 191.549C233.117 191.646 234.58 192.472 235.555 193.397C235.116 192.521 234.726 191.694 234.58 191.062V189.7L235.116 188.679L235.75 185.955L235.116 184.884V184.203C234.726 184.203 234.288 183.961 233.946 183.28L234.726 182.063L233.069 182.988C233.069 182.988 233.166 182.161 232.582 181.14L233.41 179.145C233.41 179.145 234.629 180.604 235.701 180.799L235.847 180.069C236.042 177.297 237.602 175.497 238.919 173.162C239.601 171.897 240.186 170.633 241.307 169.854C242.526 168.979 244.086 168.785 245.256 167.86C245.987 167.326 246.328 166.109 247.01 165.428C247.937 164.553 248.766 164.553 249.984 164.406C252.324 164.212 254.566 164.164 256.906 164.018C259.246 163.872 261.489 164.018 263.877 164.212C266.315 164.406 269.679 165.671 274.748 166.985C275.577 167.228 276.163 168.007 276.65 168.639C277.138 169.32 277.235 170.05 277.576 170.779C277.869 171.412 279.088 172.238 279.233 172.968L279.916 172.432C279.379 171.606 279.136 170.828 278.697 169.903V168.347C278.941 167.568 279.038 166.839 279.038 166.109C279.136 164.602 278.941 163.045 279.233 161.585C279.477 160.272 280.16 159.689 279.916 158.521C279.77 157.499 279.623 156.333 279.575 155.165C279.429 153.171 279.136 151.273 279.233 149.23C279.282 147.869 278.795 147.334 278.356 146.118C277.966 144.999 278.258 144.464 277.089 144.269C276.406 144.221 275.041 144.221 274.31 144.415C273.432 144.61 272.604 145.193 271.677 145.486C269.24 146.118 266.802 147.09 264.365 147.334C263.049 147.431 262.952 147.042 261.879 146.604C260.709 146.118 259.88 145.728 258.564 145.923C257.394 146.069 256.273 146.264 255.103 146.702C253.933 147.09 253.543 147.334 252.324 146.896C251.593 146.555 250.179 146.264 249.546 145.777L248.863 144.512C248.473 143.88 248.327 141.984 247.401 141.984L247.547 140.378C249.156 140.281 249.35 140.135 250.959 140.038C252.178 139.941 253.446 139.697 254.664 139.551C256.127 139.454 256.322 139.357 257.346 138.676C258.028 138.189 257.98 138.189 258.954 138.14C259.88 138.092 260.562 138.043 261.392 137.8C263.731 137.168 265.535 136.487 267.875 136.779C269.874 136.973 271.921 137.12 273.969 137.022C275.675 136.924 276.698 138.092 278.21 138.821L279.379 138.043C279.575 137.071 278.941 137.217 278.648 136.633C278.307 136.098 278.405 135.66 278.551 134.93C278.795 133.86 279.038 132.741 279.282 131.574C279.477 130.796 279.623 130.747 279.282 129.774L278.648 128.218C278.405 127.099 278.648 126.029 278.307 124.959C278.063 123.84 278.21 123.207 278.161 122.041C277.186 121.846 276.698 122.77 275.919 123.159C275.09 123.597 275.626 124.229 274.164 124.667C271.677 125.446 267.631 127.099 265.096 126.71C264.024 126.515 262.903 126.612 261.83 126.612C260.562 126.612 260.124 126.515 259.198 126.029L258.271 125.543H256.273C254.908 125.543 253.738 125.737 252.422 125.397C250.959 125.008 247.303 122.526 247.547 125.786C248.181 126.369 248.425 126.564 248.668 127.342V128.51L248.327 129.58C248.327 130.407 248.668 131.039 248.376 131.817C247.791 134.055 245.987 135.562 245.743 137.849C245.646 138.773 245.402 140.038 245.402 140.719C245.451 141.594 245.841 141.594 245.207 142.665C244.866 143.297 244.427 143.831 244.086 144.415C243.501 145.583 243.257 145.874 242.087 146.507C240.82 147.188 239.309 147.139 238.041 147.966C236.871 148.647 235.604 149.814 234.433 150.544C233.8 150.933 233.848 150.788 233.166 151.128C231.216 152.003 228.827 152.344 226.976 153.365C225.026 154.533 223.465 156.284 220.881 155.749C219.175 155.359 217.713 155.749 216.006 155.505C214.69 155.214 213.472 154.727 212.35 153.997C211.522 153.414 210.206 153.122 209.524 152.393C208.841 151.614 208.549 150.739 207.817 149.96C206.355 148.501 205.038 146.945 203.528 145.534L202.162 143.443C201.285 142.47 201.138 141.643 200.359 140.67C199.822 139.989 199.335 139.648 198.75 138.676L198.019 136.779C197.434 135.465 196.703 135.952 197.092 134.055C197.434 132.353 198.067 130.455 198.847 128.851C199.481 127.489 199.188 126.515 200.504 125.299C201.285 124.424 201.87 123.451 202.26 122.381C202.454 121.651 202.553 120.873 202.845 120.143C203.137 119.511 203.527 119.511 203.917 119.122C204.649 118.149 206.647 117.371 208.159 117.858H208.256C209.377 117.371 207.232 117.371 207.574 116.544L208.256 115.863L208.987 114.938C210.547 114.793 213.033 114.306 214.447 114.209C216.64 113.966 218.249 113.188 220.248 112.458L222.295 111.632C223.173 111.583 223.661 112.361 224.44 112.604C225.318 112.994 226.439 112.75 227.414 112.798C229.657 112.798 231.996 113.528 233.995 114.647C234.873 115.134 235.847 115.668 236.676 116.106L238.236 117.128C239.211 117.662 240.381 118.198 241.356 118.782C242.478 119.463 243.16 120.679 244.232 121.408C245.207 122.138 245.451 122.576 245.89 123.646C246.816 123.986 246.475 119.511 247.303 119.56C248.181 119.56 248.717 119.705 249.497 119.414C250.813 118.83 251.691 119.171 253.056 119.317C254.225 119.414 255.639 118.879 256.761 118.539L258.369 118.198C259.1 117.906 259.978 117.809 260.758 117.565C261.977 117.177 262.611 117.322 263.829 117.079C264.852 116.836 265.877 116.836 266.851 116.69L268.558 115.96C270.02 115.522 270.946 115.96 272.408 116.009C273.823 116.009 272.848 115.668 276.894 115.766C278.307 115.766 278.113 115.766 279.721 115.377C280.794 116.155 281.232 117.03 282.158 116.3C282.695 116.009 283.231 115.377 283.864 115.377C285.083 115.377 286.497 115.279 286.497 115.279C286.497 114.404 286.058 113.577 286.01 113.091C285.278 111.436 284.157 112.166 281.329 112.653C280.501 113.042 280.306 113.237 279.429 113.917C278.551 113.431 278.697 113.674 278.648 113.042V111.875C278.648 111.048 278.648 110.172 278.405 109.393L278.161 108.031L278.551 106.621L280.16 106.281C279.867 105.016 277.527 103.411 276.552 102.584C275.675 101.757 274.456 99.3247 274.213 98.0607C274.115 97.4769 274.213 97.4279 273.482 96.7959C272.457 96.4554 272.116 96.3093 271.677 95.9206C270.702 94.9473 270.215 94.4606 269.093 93.6343C268.46 92.4177 269.045 91.8828 269.533 91.2018C271.092 89.7427 270.751 90.4727 271.921 90.1322C273.238 89.7917 273.579 89.5965 274.748 90.2294C275.577 90.7642 276.601 91.1047 277.576 91.299C278.941 91.6395 279.575 91.9318 280.842 92.5638C282.304 93.2938 283.133 93.4391 284.352 94.2663C285.229 94.8501 286.01 94.4606 287.033 94.5586C288.447 94.6068 288.74 95.0935 289.617 96.5036M67.1293 220.684C67.4705 221.463 68.2993 221.852 68.1044 222.727L66.1544 223.311L65.0819 224.479L63.717 224.819C62.4983 225.111 61.3283 225.402 60.0609 225.305C58.7933 225.16 58.4034 224.77 57.4284 225.646L56.7947 226.57L55.5272 226.959C54.8935 227.397 54.211 228.516 53.8698 229.1C53.3336 229.975 52.8949 230.947 52.7486 231.969C52.5536 233.039 52.3586 233.283 52.4074 234.352C52.4074 235.131 52.6511 235.472 52.9436 236.298L54.3573 237.903C55.2348 238.925 54.7473 240.481 55.8685 241.259C58.5496 242.962 60.4996 244.276 63.6195 245.102C65.0332 245.491 66.2031 245.005 67.568 244.86C68.2993 244.86 69.1281 244.713 69.713 244.567L70.8342 244.13C72.1017 243.4 73.0766 242.524 73.9541 241.552C74.7828 240.725 75.8065 240.19 76.5377 239.168C77.0253 238.633 77.464 237.66 77.6103 236.931C77.7078 236.25 77.854 235.714 78.049 235.326C78.4877 234.548 79.1215 234.839 79.024 233.867C78.9265 233.039 79.2189 233.137 78.9265 232.553C77.8053 230.413 78.244 227.738 76.8791 225.743L74.8803 224.819C74.7341 224.041 74.0028 224.284 73.2716 224.236C72.4429 224.236 72.1504 223.895 71.5655 223.749L69.4206 223.214L68.9818 222.436L68.3968 221.219L67.0806 220.733L67.1293 220.684ZM244.086 183.62L244.671 183.912C244.671 184.593 244.671 185.565 244.671 185.906C244.573 186.685 244.817 186.782 245.06 187.414C245.451 188.484 245.548 188.484 244.525 189.311C244.719 189.554 244.719 191.208 245.11 190.527C245.256 189.895 245.402 189.944 245.548 190.09C247.109 191.11 249.497 193.737 250.179 193.446C250.813 193.153 251.74 194.321 252.616 194.711C252.909 194.856 252.616 195.489 253.153 196.17C253.69 196.802 254.567 197.385 255.444 197.58C256.273 197.872 257.005 198.845 257.638 198.845C257.784 198.796 260.612 198.747 261.879 197.726C263.146 196.704 263.975 195.586 265.535 195.051C266.705 194.613 269.727 194.418 270.702 193.689L272.018 192.424C273.14 191.403 273.482 189.651 273.92 188.289C274.213 187.122 274.505 186.004 274.651 184.787L274.748 183.183C274.748 182.502 274.7 181.723 274.651 181.042C274.651 179.242 271.873 177.491 271.532 175.546C271.336 174.184 271.043 173.454 269.581 173.308C269.045 173.308 268.265 175.595 266.851 175.497C265.974 175.399 266.168 175.497 265.145 175.254C263.049 174.914 260.562 173.308 258.515 173.454C257.784 173.454 257.346 173.113 256.712 173.065L255.931 173.259L254.567 174.135C253.543 174.475 252.519 174.816 251.398 174.816C249.35 174.816 249.546 175.935 248.571 177.491C248.034 178.416 247.059 179.534 246.621 180.604L245.938 182.793L244.135 182.696C243.55 182.453 241.892 182.453 241.161 182.453V183.183C241.161 183.183 241.161 184.496 242.185 184.301L244.135 183.718L244.086 183.62ZM212.253 130.845L212.009 130.261L212.35 128.558C212.643 128.218 211.181 127.537 210.45 127.196L209.377 128.558C209.036 128.899 207.622 129.823 208.402 130.164L209.816 131.039C209.816 131.039 210.791 131.526 211.571 131.769V132.985L209.377 134.2L208.987 134.687V135.368L209.621 136.292L210.206 137.168L210.303 137.459L210.986 138.384C211.424 139.016 211.863 139.551 212.497 139.941C213.374 140.378 214.106 140.864 214.934 141.351L215.13 141.448L215.568 141.789L216.884 142.713L217.713 143.394C218.396 144.124 218.2 144.61 219.273 144.902C220.979 145.388 222.636 145.728 224.44 145.728L226.049 145.534L227.365 143.831C228.145 143.394 229.413 143.54 230.241 143.248C231.07 142.956 232.142 142.665 232.776 142.129C234.092 141.059 235.116 139.114 236.091 137.703C237.261 135.903 237.114 133.228 236.676 130.991C236.189 128.655 236.335 126.321 234.092 125.348L232.971 124.618L232.386 123.743C231.607 123.306 229.608 123.548 228.633 123.548C226.195 123.451 222.149 122.332 219.906 123.062C219.029 123.403 218.737 124.035 218.005 124.618C217.08 125.299 217.225 126.029 216.397 126.759C215.373 127.731 215.324 128.461 214.642 129.677C214.057 130.698 213.374 130.698 212.205 130.747M299.854 150.495C299.952 134.396 297.368 118.927 292.737 104.384V104.481C292.396 106.135 292.737 106.086 291.859 107.399C290.982 108.859 290.641 112.847 290.641 113.625C290.543 115.085 290.397 116.106 290.446 116.739C290.446 118.052 290.591 118.587 290.543 119.511C290.397 120.679 290.494 121.944 290.397 123.062C290.202 125.348 290.202 127.05 290.202 129.288C290.153 131.623 290.641 132.644 290.543 135.077C290.348 137.703 290.202 137.605 290.007 138.53C289.325 141.691 289.763 144.561 290.153 148.55C290.348 150.009 290.787 151.176 290.69 152.538C290.641 153.9 290.348 155.262 290.348 156.624C290.348 158.716 290.494 160.807 290.25 162.947C290.056 164.893 290.25 166.79 290.25 168.785L289.909 169.854C289.715 170.535 289.86 171.265 290.056 171.995C290.202 172.773 290.056 173.503 290.3 174.33C290.69 175.74 289.275 176.276 288.788 177.589L287.569 179.583C286.789 180.313 286.058 179.437 285.376 179.923C284.547 180.507 284.839 181.966 284.937 182.842C285.278 185.225 285.522 187.171 284.791 189.554L284.401 190.868L284.742 191.549L285.035 192.327L284.742 193.64C284.352 194.808 283.572 196.17 282.938 197.288C282.353 198.115 281.817 198.358 281.037 199.137C280.111 200.158 279.282 200.158 278.161 200.499C277.089 200.839 276.308 201.763 275.431 202.347C274.456 202.98 273.823 203.222 272.994 204.049C272.311 204.682 271.141 205.363 270.264 205.703C269.192 206.092 268.85 206.141 267.68 206.433C265.486 207.016 263.342 207.989 261.099 208.232C259.344 208.378 258.077 207.405 256.127 207.892C254.859 208.086 254.274 207.357 252.958 207.065C251.74 206.773 251.008 206.189 249.935 205.752C248.815 205.265 247.547 204.39 246.328 203.709C243.55 202.201 241.453 199.477 240.479 198.358C239.747 197.532 239.211 196.996 238.431 196.558C238.675 197.629 239.504 197.92 240.332 198.553C241.015 199.088 240.82 199.72 240.966 200.401L241.21 202.103C241.356 203.514 239.65 203.952 239.454 205.12C239.357 206.092 240.722 206.87 240.625 208.086C240.528 209.157 240.04 209.887 239.796 210.762C239.454 211.832 239.553 213.145 239.504 214.215C239.504 215.577 239.064 217.036 239.357 218.35C239.698 219.809 239.942 220.636 239.65 222.29C239.309 223.895 239.601 225.014 239.845 226.57C240.186 228.759 240.04 231.24 240.04 233.429C240.04 236.153 240.186 238.828 240.186 241.503C240.186 242.621 240.479 244.13 240.186 245.2C239.991 246.075 239.553 245.929 239.26 246.61C238.821 247.681 239.406 249.188 239.504 250.307C239.845 252.982 239.504 255.754 239.504 258.43C239.504 261.397 239.504 264.316 239.65 267.282C239.698 267.915 239.698 268.596 239.796 269.325C253.982 258.722 266.267 245.686 275.967 230.802C275.577 230.364 275.236 229.781 274.846 229.148L277.479 224.722L271.775 228.029C271.775 228.029 272.36 225.16 270.117 221.463L272.799 214.653C272.799 214.653 278.113 221.171 282.061 220.587C293.371 199.72 299.854 175.837 300 150.495" fill="#777777"/>
</svg>
