<svg width="32" height="33" viewBox="0 0 32 33" fill="none" xmlns="http://www.w3.org/2000/svg">
<path d="M29.328 13.6667C29.5062 13.6667 29.6772 13.5978 29.8032 13.4752C29.9292 13.3525 30 13.1862 30 13.0128V9.52564C30 9.12102 29.8348 8.73296 29.5407 8.44685C29.2467 8.16074 28.8479 8 28.432 8H3.568C3.15214 8 2.75331 8.16074 2.45926 8.44685C2.1652 8.73296 2 9.12102 2 9.52564V13.0128C2 13.1862 2.0708 13.3525 2.19682 13.4752C2.32285 13.5978 2.49377 13.6667 2.672 13.6667C3.44431 13.6667 4.18499 13.9652 4.7311 14.4965C5.2772 15.0279 5.584 15.7486 5.584 16.5C5.584 17.2514 5.2772 17.9721 4.7311 18.5035C4.18499 19.0348 3.44431 19.3333 2.672 19.3333C2.49377 19.3333 2.32285 19.4022 2.19682 19.5248C2.0708 19.6475 2 19.8138 2 19.9872V23.4744C2 23.879 2.1652 24.267 2.45926 24.5532C2.75331 24.8393 3.15214 25 3.568 25H28.432C28.8479 25 29.2467 24.8393 29.5407 24.5532C29.8348 24.267 30 23.879 30 23.4744V19.9872C30 19.8138 29.9292 19.6475 29.8032 19.5248C29.6772 19.4022 29.5062 19.3333 29.328 19.3333C28.5557 19.3333 27.815 19.0348 27.2689 18.5035C26.7228 17.9721 26.416 17.2514 26.416 16.5C26.416 15.7486 26.7228 15.0279 27.2689 14.4965C27.815 13.9652 28.5557 13.6667 29.328 13.6667ZM3.344 23.4744V20.5898C4.34457 20.4353 5.25566 19.9385 5.91348 19.1888C6.5713 18.4391 6.93269 17.4857 6.93269 16.5C6.93269 15.5143 6.5713 14.5609 5.91348 13.8112C5.25566 13.0615 4.34457 12.5647 3.344 12.4102V9.52564C3.344 9.46784 3.3676 9.4124 3.40961 9.37153C3.45162 9.33065 3.50859 9.30769 3.568 9.30769H10.064V23.6923H3.568C3.50859 23.6923 3.45162 23.6693 3.40961 23.6285C3.3676 23.5876 3.344 23.5322 3.344 23.4744ZM28.656 20.5898V23.4744C28.656 23.5322 28.6324 23.5876 28.5904 23.6285C28.5484 23.6693 28.4914 23.6923 28.432 23.6923H11.408V9.30769H28.432C28.4914 9.30769 28.5484 9.33065 28.5904 9.37153C28.6324 9.4124 28.656 9.46784 28.656 9.52564V12.4102C27.6554 12.5647 26.7443 13.0615 26.0865 13.8112C25.4287 14.5609 25.0673 15.5143 25.0673 16.5C25.0673 17.4857 25.4287 18.4391 26.0865 19.1888C26.7443 19.9385 27.6554 20.4353 28.656 20.5898Z" fill="white"/>
</svg>
